Benzinova-Thin.ufo
<glyph name="percent" format="1">
  <advance width="616.0"/>
  <unicode hex="0025"/>
  <outline>
    <contour>
      <point x="238" y="530" type="curve" smooth="yes"/>
      <point x="324" y="530"/>
      <point x="395" y="601"/>
      <point x="395" y="687" type="curve" smooth="yes"/>
      <point x="395" y="774"/>
      <point x="324" y="845"/>
      <point x="238" y="845" type="curve" smooth="yes"/>
      <point x="151" y="845"/>
      <point x="81" y="774"/>
      <point x="81" y="687" type="curve" smooth="yes"/>
      <point x="81" y="601"/>
      <point x="151" y="530"/>
    </contour>
    <contour>
      <point x="238" y="562" type="curve" smooth="yes"/>
      <point x="169" y="562"/>
      <point x="113" y="619"/>
      <point x="113" y="687" type="curve" smooth="yes"/>
      <point x="113" y="756"/>
      <point x="169" y="813"/>
      <point x="238" y="813" type="curve" smooth="yes"/>
      <point x="306" y="813"/>
      <point x="363" y="756"/>
      <point x="363" y="687" type="curve" smooth="yes"/>
      <point x="363" y="619"/>
      <point x="306" y="562"/>
    </contour>
    <contour>
      <point x="756" y="830" type="line"/>
      <point x="762" y="837"/>
      <point x="761" y="848"/>
      <point x="754" y="852" type="curve" smooth="yes"/>
      <point x="747" y="858"/>
      <point x="736" y="857"/>
      <point x="732" y="850" type="curve" smooth="yes"/>
      <point x="84" y="26" type="line" smooth="yes"/>
      <point x="78" y="19"/>
      <point x="79" y="8"/>
      <point x="86" y="4" type="curve" smooth="yes"/>
      <point x="93" y="-2"/>
      <point x="104" y="-1"/>
      <point x="108" y="6" type="curve" smooth="yes"/>
    </contour>
    <contour>
      <point x="603" y="-5" type="curve" smooth="yes"/>
      <point x="689" y="-5"/>
      <point x="760" y="66"/>
      <point x="760" y="152" type="curve" smooth="yes"/>
      <point x="760" y="239"/>
      <point x="689" y="309"/>
      <point x="603" y="309" type="curve" smooth="yes"/>
      <point x="516" y="309"/>
      <point x="445" y="239"/>
      <point x="445" y="152" type="curve" smooth="yes"/>
      <point x="445" y="66"/>
      <point x="516" y="-5"/>
    </contour>
    <contour>
      <point x="603" y="27" type="curve" smooth="yes"/>
      <point x="534" y="27"/>
      <point x="477" y="84"/>
      <point x="477" y="152" type="curve" smooth="yes"/>
      <point x="477" y="221"/>
      <point x="534" y="277"/>
      <point x="603" y="277" type="curve" smooth="yes"/>
      <point x="671" y="277"/>
      <point x="728" y="221"/>
      <point x="728" y="152" type="curve" smooth="yes"/>
      <point x="728" y="84"/>
      <point x="671" y="27"/>
    </contour>
  </outline>
</glyph>
<glyph name="comma" format="1">
  <advance width="204.0"/>
  <unicode hex="002C"/>
  <outline>
    <contour>
      <point x="61" y="-63"/>
      <point x="69" y="-71"/>
      <point x="79" y="-71" type="curve" smooth="yes"/>
      <point x="85" y="-71"/>
      <point x="92" y="-67"/>
      <point x="94" y="-62" type="curve"/>
      <point x="122" y="14" type="line" smooth="yes"/>
      <point x="123" y="16"/>
      <point x="123" y="19"/>
      <point x="123" y="21" type="curve" smooth="yes"/>
      <point x="123" y="32"/>
      <point x="113" y="44"/>
      <point x="100" y="44" type="curve" smooth="yes"/>
      <point x="90" y="44"/>
      <point x="78" y="36"/>
      <point x="76" y="26" type="curve"/>
      <point x="63" y="-53"/>
      <point x="62" y="-55"/>
      <point x="62" y="-55" type="curve" smooth="yes"/>
    </contour>
  </outline>
</glyph>
<glyph name="hyphen" format="1">
  <advance width="451"/>
  <unicode hex="002D"/>
  <outline>
    <contour>
      <point x="355" y="427" type="line"/>
      <point x="363" y="427"/>
      <point x="371" y="434"/>
      <point x="371" y="443" type="curve" smooth="yes"/>
      <point x="371" y="452"/>
      <point x="363" y="459"/>
      <point x="355" y="459" type="curve" smooth="yes"/>
      <point x="96" y="459" type="line" smooth="yes"/>
      <point x="87" y="459"/>
      <point x="80" y="452"/>
      <point x="80" y="443" type="curve" smooth="yes"/>
      <point x="80" y="434"/>
      <point x="87" y="427"/>
      <point x="96" y="427" type="curve" smooth="yes"/>
    </contour>
  </outline>
</glyph>
<glyph name="slash" format="1">
  <advance width="408.0"/>
  <unicode hex="002F"/>
  <outline>
    <contour>
      <point x="98" y="-16" type="curve" smooth="yes"/>
      <point x="106" y="-16"/>
      <point x="112" y="-10"/>
      <point x="114" y="-2" type="curve" smooth="yes"/>
      <point x="326" y="1198" type="line"/>
      <point x="326" y="1200" type="line" smooth="yes"/>
      <point x="326" y="1208"/>
      <point x="318" y="1216"/>
      <point x="308" y="1216" type="curve" smooth="yes"/>
      <point x="302" y="1216"/>
      <point x="296" y="1210"/>
      <point x="294" y="1202" type="curve" smooth="yes"/>
      <point x="82" y="2" type="line"/>
      <point x="82" y="0"/>
      <point x="82" y="0"/>
      <point x="82" y="-2" type="curve" smooth="yes"/>
      <point x="82" y="-8"/>
      <point x="88" y="-16"/>
    </contour>
  </outline>
</glyph>
<glyph name="one" format="1">
  <advance width="840.0"/>
  <unicode hex="0031"/>
  <outline>
    <contour>
      <point x="405" y="16" type="line"/>
      <point x="405" y="7"/>
      <point x="412" y="0"/>
      <point x="421" y="0" type="curve" smooth="yes"/>
      <point x="430" y="0"/>
      <point x="437" y="7"/>
      <point x="437" y="16" type="curve" smooth="yes"/>
      <point x="437" y="1202" type="line" smooth="yes"/>
      <point x="437" y="1223"/>
      <point x="425" y="1228"/>
      <point x="410" y="1213" type="curve" smooth="yes"/>
      <point x="85" y="887" type="line" smooth="yes"/>
      <point x="79" y="881"/>
      <point x="79" y="871"/>
      <point x="85" y="865" type="curve" smooth="yes"/>
      <point x="91" y="859"/>
      <point x="101" y="859"/>
      <point x="107" y="865" type="curve" smooth="yes"/>
      <point x="432" y="1191" type="line"/>
      <point x="405" y="1202" type="line"/>
    </contour>
    <contour>
      <point x="745" y="0" type="line"/>
      <point x="754" y="0"/>
      <point x="761" y="7"/>
      <point x="761" y="16" type="curve" smooth="yes"/>
      <point x="761" y="25"/>
      <point x="754" y="32"/>
      <point x="745" y="32" type="curve" smooth="yes"/>
      <point x="97" y="32" type="line" smooth="yes"/>
      <point x="88" y="32"/>
      <point x="81" y="25"/>
      <point x="81" y="16" type="curve" smooth="yes"/>
      <point x="81" y="7"/>
      <point x="88" y="0"/>
      <point x="97" y="0" type="curve" smooth="yes"/>
    </contour>
  </outline>
</glyph>
<glyph name="two" format="1">
  <advance width="840.0"/>
  <unicode hex="0032"/>
  <outline>
    <contour>
      <point x="744" y="0" type="line"/>
      <point x="753" y="0"/>
      <point x="760" y="7"/>
      <point x="760" y="16" type="curve" smooth="yes"/>
      <point x="760" y="25"/>
      <point x="753" y="32"/>
      <point x="744" y="32" type="curve" smooth="yes"/>
      <point x="96" y="32" type="line"/>
      <point x="112" y="16" type="line"/>
      <point x="112" y="119" type="line" smooth="yes"/>
      <point x="112" y="288"/>
      <point x="251" y="427"/>
      <point x="420" y="427" type="curve" smooth="yes"/>
      <point x="607" y="427"/>
      <point x="760" y="580"/>
      <point x="760" y="767" type="curve" smooth="yes"/>
      <point x="760" y="881" type="line" smooth="yes"/>
      <point x="760" y="1069"/>
      <point x="607" y="1221"/>
      <point x="420" y="1221" type="curve" smooth="yes"/>
      <point x="233" y="1221"/>
      <point x="80" y="1069"/>
      <point x="80" y="881" type="curve" smooth="yes"/>
      <point x="80" y="872"/>
      <point x="87" y="865"/>
      <point x="96" y="865" type="curve" smooth="yes"/>
      <point x="105" y="865"/>
      <point x="112" y="872"/>
      <point x="112" y="881" type="curve" smooth="yes"/>
      <point x="112" y="1051"/>
      <point x="251" y="1189"/>
      <point x="420" y="1189" type="curve" smooth="yes"/>
      <point x="589" y="1189"/>
      <point x="728" y="1051"/>
      <point x="728" y="881" type="curve" smooth="yes"/>
      <point x="728" y="767" type="line" smooth="yes"/>
      <point x="728" y="598"/>
      <point x="589" y="459"/>
      <point x="420" y="459" type="curve" smooth="yes"/>
      <point x="233" y="459"/>
      <point x="80" y="306"/>
      <point x="80" y="119" type="curve" smooth="yes"/>
      <point x="80" y="16" type="line" smooth="yes"/>
      <point x="80" y="7"/>
      <point x="87" y="0"/>
      <point x="96" y="0" type="curve" smooth="yes"/>
    </contour>
  </outline>
</glyph>
<glyph name="six" format="1">
  <advance width="840.0"/>
  <unicode hex="0036"/>
  <outline>
    <contour>
      <point x="728" y="881" type="curve" smooth="yes"/>
      <point x="728" y="872"/>
      <point x="735" y="865"/>
      <point x="744" y="865" type="curve" smooth="yes"/>
      <point x="753" y="865"/>
      <point x="760" y="872"/>
      <point x="760" y="881" type="curve" smooth="yes"/>
      <point x="760" y="1069"/>
      <point x="607" y="1221"/>
      <point x="420" y="1221" type="curve" smooth="yes"/>
      <point x="233" y="1221"/>
      <point x="80" y="1069"/>
      <point x="80" y="881" type="curve" smooth="yes"/>
      <point x="80" y="317" type="line" smooth="yes"/>
      <point x="80" y="130"/>
      <point x="233" y="-21"/>
      <point x="420" y="-21" type="curve" smooth="yes"/>
      <point x="607" y="-21"/>
      <point x="760" y="130"/>
      <point x="760" y="317" type="curve" smooth="yes"/>
      <point x="760" y="472" type="line" smooth="yes"/>
      <point x="760" y="659"/>
      <point x="607" y="812"/>
      <point x="420" y="812" type="curve" smooth="yes"/>
      <point x="248" y="812"/>
      <point x="104" y="682"/>
      <point x="83" y="515" type="curve" smooth="yes"/>
      <point x="82" y="506"/>
      <point x="88" y="498"/>
      <point x="96" y="497" type="curve" smooth="yes"/>
      <point x="105" y="496"/>
      <point x="113" y="502"/>
      <point x="115" y="510" type="curve" smooth="yes"/>
      <point x="134" y="662"/>
      <point x="264" y="780"/>
      <point x="420" y="780" type="curve" smooth="yes"/>
      <point x="589" y="780"/>
      <point x="728" y="641"/>
      <point x="728" y="472" type="curve" smooth="yes"/>
      <point x="728" y="317" type="line" smooth="yes"/>
      <point x="728" y="148"/>
      <point x="589" y="11"/>
      <point x="420" y="11" type="curve" smooth="yes"/>
      <point x="251" y="11"/>
      <point x="112" y="148"/>
      <point x="112" y="317" type="curve" smooth="yes"/>
      <point x="112" y="881" type="line" smooth="yes"/>
      <point x="112" y="1051"/>
      <point x="251" y="1189"/>
      <point x="420" y="1189" type="curve" smooth="yes"/>
      <point x="589" y="1189"/>
      <point x="728" y="1051"/>
    </contour>
  </outline>
</glyph>
<glyph name="seven" format="1">
  <advance width="840.0"/>
  <unicode hex="0037"/>
  <outline>
    <contour>
      <point x="96" y="1200" type="line"/>
      <point x="87" y="1200"/>
      <point x="80" y="1193"/>
      <point x="80" y="1184" type="curve" smooth="yes"/>
      <point x="80" y="1175"/>
      <point x="87" y="1168"/>
      <point x="96" y="1168" type="curve" smooth="yes"/>
      <point x="744" y="1168" type="line"/>
      <point x="729" y="1188" type="line"/>
      <point x="391" y="20" type="line" smooth="yes"/>
      <point x="389" y="12"/>
      <point x="394" y="3"/>
      <point x="402" y="1" type="curve" smooth="yes"/>
      <point x="411" y="-2"/>
      <point x="419" y="4"/>
      <point x="422" y="12" type="curve" smooth="yes"/>
      <point x="759" y="1180" type="line" smooth="yes"/>
      <point x="763" y="1191"/>
      <point x="756" y="1200"/>
      <point x="744" y="1200" type="curve" smooth="yes"/>
    </contour>
  </outline>
</glyph>
<glyph name="eight" format="1">
  <advance width="840.0"/>
  <unicode hex="0038"/>
  <outline>
    <contour>
      <point x="503" y="662" type="curve" smooth="yes"/>
      <point x="495" y="660"/>
      <point x="489" y="652"/>
      <point x="490" y="643" type="curve" smooth="yes"/>
      <point x="491" y="635"/>
      <point x="499" y="629"/>
      <point x="508" y="630" type="curve" smooth="yes"/>
      <point x="642" y="649"/>
      <point x="747" y="766"/>
      <point x="747" y="906" type="curve" smooth="yes"/>
      <point x="747" y="942" type="line" smooth="yes"/>
      <point x="747" y="1096"/>
      <point x="622" y="1221"/>
      <point x="468" y="1221" type="curve" smooth="yes"/>
      <point x="373" y="1221" type="line" smooth="yes"/>
      <point x="219" y="1221"/>
      <point x="93" y="1096"/>
      <point x="93" y="942" type="curve" smooth="yes"/>
      <point x="93" y="906" type="line" smooth="yes"/>
      <point x="93" y="752"/>
      <point x="219" y="627"/>
      <point x="373" y="627" type="curve" smooth="yes"/>
      <point x="468" y="627" type="line" smooth="yes"/>
      <point x="611" y="627"/>
      <point x="729" y="509"/>
      <point x="729" y="366" type="curve" smooth="yes"/>
      <point x="729" y="271" type="line" smooth="yes"/>
      <point x="729" y="128"/>
      <point x="611" y="11"/>
      <point x="468" y="11" type="curve" smooth="yes"/>
      <point x="373" y="11" type="line" smooth="yes"/>
      <point x="229" y="11"/>
      <point x="112" y="128"/>
      <point x="112" y="271" type="curve" smooth="yes"/>
      <point x="112" y="366" type="line" smooth="yes"/>
      <point x="112" y="500"/>
      <point x="214" y="611"/>
      <point x="344" y="625" type="curve" smooth="yes"/>
      <point x="352" y="626"/>
      <point x="359" y="634"/>
      <point x="358" y="643" type="curve" smooth="yes"/>
      <point x="357" y="651"/>
      <point x="349" y="658"/>
      <point x="340" y="657" type="curve" smooth="yes"/>
      <point x="194" y="641"/>
      <point x="80" y="516"/>
      <point x="80" y="366" type="curve" smooth="yes"/>
      <point x="80" y="271" type="line" smooth="yes"/>
      <point x="80" y="110"/>
      <point x="211" y="-21"/>
      <point x="373" y="-21" type="curve" smooth="yes"/>
      <point x="468" y="-21" type="line" smooth="yes"/>
      <point x="629" y="-21"/>
      <point x="761" y="110"/>
      <point x="761" y="271" type="curve" smooth="yes"/>
      <point x="761" y="366" type="line" smooth="yes"/>
      <point x="761" y="527"/>
      <point x="629" y="659"/>
      <point x="468" y="659" type="curve" smooth="yes"/>
      <point x="373" y="659" type="line" smooth="yes"/>
      <point x="237" y="659"/>
      <point x="125" y="770"/>
      <point x="125" y="906" type="curve" smooth="yes"/>
      <point x="125" y="942" type="line" smooth="yes"/>
      <point x="125" y="1078"/>
      <point x="237" y="1189"/>
      <point x="373" y="1189" type="curve" smooth="yes"/>
      <point x="468" y="1189" type="line" smooth="yes"/>
      <point x="604" y="1189"/>
      <point x="715" y="1078"/>
      <point x="715" y="942" type="curve" smooth="yes"/>
      <point x="715" y="906" type="line" smooth="yes"/>
      <point x="715" y="782"/>
      <point x="622" y="679"/>
    </contour>
  </outline>
</glyph>
<glyph name="greater" format="1">
  <advance width="733"/>
  <unicode hex="003E"/>
  <outline>
    <contour>
      <point x="106" y="860" type="line"/>
      <point x="99" y="866"/>
      <point x="89" y="864"/>
      <point x="84" y="858" type="curve" smooth="yes"/>
      <point x="78" y="851"/>
      <point x="80" y="841"/>
      <point x="86" y="836" type="curve" smooth="yes"/>
      <point x="630" y="414" type="line"/>
      <point x="630" y="438" type="line"/>
      <point x="84" y="14" type="line" smooth="yes"/>
      <point x="78" y="9"/>
      <point x="76" y="-1"/>
      <point x="82" y="-8" type="curve" smooth="yes"/>
      <point x="87" y="-14"/>
      <point x="97" y="-16"/>
      <point x="104" y="-10" type="curve" smooth="yes"/>
      <point x="650" y="414" type="line" smooth="yes"/>
      <point x="659" y="420"/>
      <point x="659" y="432"/>
      <point x="650" y="438" type="curve" smooth="yes"/>
    </contour>
  </outline>
</glyph>
<glyph name="B" format="1">
  <advance width="1114.0"/>
  <unicode hex="0042"/>
  <outline>
    <contour>
      <point x="109" y="637" type="line"/>
      <point x="616" y="637" type="line" smooth="yes"/>
      <point x="767" y="637"/>
      <point x="878" y="773"/>
      <point x="878" y="925" type="curve" smooth="yes"/>
      <point x="878" y="938" type="line" smooth="yes"/>
      <point x="878" y="1090"/>
      <point x="768" y="1200"/>
      <point x="616" y="1200" type="curve" smooth="yes"/>
      <point x="96" y="1200" type="line" smooth="yes"/>
      <point x="87" y="1200"/>
      <point x="80" y="1193"/>
      <point x="80" y="1184" type="curve" smooth="yes"/>
      <point x="80" y="16" type="line" smooth="yes"/>
      <point x="80" y="7"/>
      <point x="87" y="0"/>
      <point x="96" y="0" type="curve" smooth="yes"/>
      <point x="716" y="0" type="line" smooth="yes"/>
      <point x="900" y="0"/>
      <point x="1037" y="163"/>
      <point x="1037" y="348" type="curve" smooth="yes"/>
      <point x="1037" y="533"/>
      <point x="901" y="669"/>
      <point x="716" y="669" type="curve" smooth="yes"/>
      <point x="109" y="669" type="line"/>
    </contour>
    <contour>
      <point x="109" y="669" type="line"/>
      <point x="109" y="637" type="line"/>
      <point x="716" y="637" type="line" smooth="yes"/>
      <point x="883" y="637"/>
      <point x="1005" y="515"/>
      <point x="1005" y="348" type="curve" smooth="yes"/>
      <point x="1005" y="181"/>
      <point x="884" y="32"/>
      <point x="716" y="32" type="curve" smooth="yes"/>
      <point x="96" y="32" type="line"/>
      <point x="112" y="16" type="line"/>
      <point x="112" y="1184" type="line"/>
      <point x="96" y="1168" type="line"/>
      <point x="616" y="1168" type="line" smooth="yes"/>
      <point x="750" y="1168"/>
      <point x="846" y="1072"/>
      <point x="846" y="938" type="curve" smooth="yes"/>
      <point x="846" y="925" type="line" smooth="yes"/>
      <point x="846" y="791"/>
      <point x="751" y="669"/>
      <point x="616" y="669" type="curve" smooth="yes"/>
    </contour>
  </outline>
</glyph>
<glyph name="H" format="1">
  <advance width="1112.0"/>
  <unicode hex="0048"/>
  <outline>
    <contour>
      <point x="80" y="16" type="line"/>
      <point x="80" y="7"/>
      <point x="87" y="0"/>
      <point x="96" y="0" type="curve" smooth="yes"/>
      <point x="105" y="0"/>
      <point x="112" y="7"/>
      <point x="112" y="16" type="curve" smooth="yes"/>
      <point x="112" y="1184" type="line" smooth="yes"/>
      <point x="112" y="1193"/>
      <point x="105" y="1200"/>
      <point x="96" y="1200" type="curve" smooth="yes"/>
      <point x="87" y="1200"/>
      <point x="80" y="1193"/>
      <point x="80" y="1184" type="curve" smooth="yes"/>
    </contour>
    <contour>
      <point x="989" y="16" type="line"/>
      <point x="989" y="7"/>
      <point x="996" y="0"/>
      <point x="1005" y="0" type="curve" smooth="yes"/>
      <point x="1014" y="0"/>
      <point x="1021" y="7"/>
      <point x="1021" y="16" type="curve" smooth="yes"/>
      <point x="1021" y="1184" type="line" smooth="yes"/>
      <point x="1021" y="1193"/>
      <point x="1014" y="1200"/>
      <point x="1005" y="1200" type="curve" smooth="yes"/>
      <point x="996" y="1200"/>
      <point x="989" y="1193"/>
      <point x="989" y="1184" type="curve" smooth="yes"/>
    </contour>
    <contour>
      <point x="97" y="563" type="line"/>
      <point x="88" y="563"/>
      <point x="81" y="556"/>
      <point x="81" y="547" type="curve" smooth="yes"/>
      <point x="81" y="538"/>
      <point x="88" y="531"/>
      <point x="97" y="531" type="curve" smooth="yes"/>
      <point x="1005" y="531" type="line" smooth="yes"/>
      <point x="1014" y="531"/>
      <point x="1021" y="538"/>
      <point x="1021" y="547" type="curve" smooth="yes"/>
      <point x="1021" y="556"/>
      <point x="1014" y="563"/>
      <point x="1005" y="563" type="curve" smooth="yes"/>
    </contour>
  </outline>
</glyph>
<glyph name="J" format="1">
  <advance width="1102.0"/>
  <unicode hex="004A"/>
  <outline>
    <contour>
      <point x="112" y="439" type="curve" smooth="yes"/>
      <point x="112" y="448"/>
      <point x="105" y="455"/>
      <point x="96" y="455" type="curve" smooth="yes"/>
      <point x="87" y="455"/>
      <point x="80" y="448"/>
      <point x="80" y="439" type="curve" smooth="yes"/>
      <point x="80" y="179"/>
      <point x="291" y="-32"/>
      <point x="551" y="-32" type="curve" smooth="yes"/>
      <point x="811" y="-32"/>
      <point x="1022" y="179"/>
      <point x="1022" y="439" type="curve" smooth="yes"/>
      <point x="1022" y="1184" type="line" smooth="yes"/>
      <point x="1022" y="1193"/>
      <point x="1015" y="1200"/>
      <point x="1006" y="1200" type="curve" smooth="yes"/>
      <point x="551" y="1200" type="line" smooth="yes"/>
      <point x="542" y="1200"/>
      <point x="535" y="1193"/>
      <point x="535" y="1184" type="curve" smooth="yes"/>
      <point x="535" y="1175"/>
      <point x="542" y="1168"/>
      <point x="551" y="1168" type="curve" smooth="yes"/>
      <point x="1006" y="1168" type="line"/>
      <point x="990" y="1184" type="line"/>
      <point x="990" y="439" type="line" smooth="yes"/>
      <point x="990" y="197"/>
      <point x="793" y="0"/>
      <point x="551" y="0" type="curve" smooth="yes"/>
      <point x="309" y="0"/>
      <point x="112" y="197"/>
    </contour>
  </outline>
</glyph>
<glyph name="N" format="1">
  <advance width="1107"/>
  <unicode hex="004E"/>
  <outline>
    <contour>
      <point x="80" y="16" type="line"/>
      <point x="80" y="7"/>
      <point x="87" y="0"/>
      <point x="96" y="0" type="curve" smooth="yes"/>
      <point x="105" y="0"/>
      <point x="112" y="7"/>
      <point x="112" y="16" type="curve" smooth="yes"/>
      <point x="112" y="1184" type="line"/>
      <point x="84" y="1175" type="line"/>
      <point x="998" y="7" type="line" smooth="yes"/>
      <point x="1008" y="-6"/>
      <point x="1027" y="-1"/>
      <point x="1027" y="16" type="curve" smooth="yes"/>
      <point x="1027" y="1184" type="line" smooth="yes"/>
      <point x="1027" y="1193"/>
      <point x="1020" y="1200"/>
      <point x="1011" y="1200" type="curve" smooth="yes"/>
      <point x="1002" y="1200"/>
      <point x="995" y="1193"/>
      <point x="995" y="1184" type="curve" smooth="yes"/>
      <point x="995" y="16" type="line"/>
      <point x="1023" y="25" type="line"/>
      <point x="108" y="1193" type="line" smooth="yes"/>
      <point x="99" y="1206"/>
      <point x="80" y="1201"/>
      <point x="80" y="1184" type="curve" smooth="yes"/>
    </contour>
  </outline>
</glyph>
<glyph name="Q" format="1">
  <advance width="1107.0"/>
  <unicode hex="0051"/>
  <outline>
    <contour>
      <point x="1022" y="751" type="line"/>
      <point x="1022" y="1010"/>
      <point x="811" y="1221"/>
      <point x="551" y="1221" type="curve" smooth="yes"/>
      <point x="291" y="1221"/>
      <point x="80" y="1010"/>
      <point x="80" y="751" type="curve" smooth="yes"/>
      <point x="80" y="439" type="line" smooth="yes"/>
      <point x="80" y="179"/>
      <point x="291" y="-32"/>
      <point x="551" y="-32" type="curve" smooth="yes"/>
      <point x="811" y="-32"/>
      <point x="1022" y="179"/>
      <point x="1022" y="439" type="curve" smooth="yes"/>
    </contour>
    <contour>
      <point x="990" y="751" type="curve" smooth="yes"/>
      <point x="990" y="439" type="line" smooth="yes"/>
      <point x="990" y="197"/>
      <point x="793" y="0"/>
      <point x="551" y="0" type="curve" smooth="yes"/>
      <point x="309" y="0"/>
      <point x="112" y="197"/>
      <point x="112" y="439" type="curve" smooth="yes"/>
      <point x="112" y="751" type="line" smooth="yes"/>
      <point x="112" y="992"/>
      <point x="309" y="1189"/>
      <point x="551" y="1189" type="curve" smooth="yes"/>
      <point x="793" y="1189"/>
      <point x="990" y="992"/>
    </contour>
    <contour>
      <point x="799" y="223" type="line"/>
      <point x="793" y="229"/>
      <point x="783" y="229"/>
      <point x="777" y="223" type="curve" smooth="yes"/>
      <point x="771" y="217"/>
      <point x="771" y="207"/>
      <point x="777" y="201" type="curve" smooth="yes"/>
      <point x="1003" y="-25" type="line" smooth="yes"/>
      <point x="1009" y="-31"/>
      <point x="1019" y="-31"/>
      <point x="1025" y="-25" type="curve" smooth="yes"/>
      <point x="1031" y="-19"/>
      <point x="1031" y="-9"/>
      <point x="1025" y="-3" type="curve" smooth="yes"/>
    </contour>
  </outline>
</glyph>
<glyph name="R" format="1">
  <advance width="1115"/>
  <unicode hex="0052"/>
  <outline>
    <contour>
      <point x="80" y="16" type="line"/>
      <point x="80" y="7"/>
      <point x="87" y="0"/>
      <point x="96" y="0" type="curve" smooth="yes"/>
      <point x="105" y="0"/>
      <point x="112" y="7"/>
      <point x="112" y="16" type="curve" smooth="yes"/>
      <point x="112" y="1184" type="line"/>
      <point x="96" y="1168" type="line"/>
      <point x="620" y="1168" type="line" smooth="yes"/>
      <point x="834" y="1168"/>
      <point x="1005" y="988"/>
      <point x="1005" y="773" type="curve" smooth="yes"/>
      <point x="1005" y="558"/>
      <point x="834" y="387"/>
      <point x="620" y="387" type="curve" smooth="yes"/>
      <point x="109" y="387" type="line" smooth="yes"/>
      <point x="100" y="387"/>
      <point x="93" y="380"/>
      <point x="93" y="371" type="curve" smooth="yes"/>
      <point x="93" y="362"/>
      <point x="100" y="355"/>
      <point x="109" y="355" type="curve" smooth="yes"/>
      <point x="620" y="355" type="line" smooth="yes"/>
      <point x="852" y="355"/>
      <point x="1037" y="540"/>
      <point x="1037" y="773" type="curve" smooth="yes"/>
      <point x="1037" y="1006"/>
      <point x="852" y="1200"/>
      <point x="620" y="1200" type="curve" smooth="yes"/>
      <point x="96" y="1200" type="line" smooth="yes"/>
      <point x="87" y="1200"/>
      <point x="80" y="1193"/>
      <point x="80" y="1184" type="curve" smooth="yes"/>
    </contour>
    <contour>
      <point x="864" y="6" type="line"/>
      <point x="869" y="0"/>
      <point x="880" y="-2"/>
      <point x="887" y="3" type="curve" smooth="yes"/>
      <point x="893" y="9"/>
      <point x="895" y="20"/>
      <point x="889" y="26" type="curve" smooth="yes"/>
      <point x="621" y="375" type="line" smooth="yes"/>
      <point x="616" y="381"/>
      <point x="605" y="383"/>
      <point x="598" y="377" type="curve" smooth="yes"/>
      <point x="592" y="372"/>
      <point x="590" y="361"/>
      <point x="596" y="355" type="curve" smooth="yes"/>
    </contour>
  </outline>
</glyph>
<glyph name="S" format="1">
  <advance width="1013"/>
  <unicode hex="0053"/>
  <outline>
    <contour>
      <point x="830" y="966" type="curve" smooth="yes"/>
      <point x="830" y="957"/>
      <point x="837" y="950"/>
      <point x="846" y="950" type="curve" smooth="yes"/>
      <point x="855" y="950"/>
      <point x="862" y="957"/>
      <point x="862" y="966" type="curve" smooth="yes"/>
      <point x="862" y="1113"/>
      <point x="742" y="1232"/>
      <point x="596" y="1232" type="curve" smooth="yes"/>
      <point x="417" y="1232" type="line" smooth="yes"/>
      <point x="271" y="1232"/>
      <point x="151" y="1113"/>
      <point x="151" y="967" type="curve" smooth="yes"/>
      <point x="151" y="927" type="line" smooth="yes"/>
      <point x="151" y="780"/>
      <point x="271" y="661"/>
      <point x="417" y="661" type="curve" smooth="yes"/>
      <point x="615" y="661" type="line" smooth="yes"/>
      <point x="773" y="661"/>
      <point x="901" y="533"/>
      <point x="901" y="376" type="curve" smooth="yes"/>
      <point x="901" y="285" type="line" smooth="yes"/>
      <point x="901" y="127"/>
      <point x="773" y="0"/>
      <point x="615" y="0" type="curve" smooth="yes"/>
      <point x="398" y="0" type="line" smooth="yes"/>
      <point x="241" y="0"/>
      <point x="112" y="128"/>
      <point x="112" y="285" type="curve" smooth="yes"/>
      <point x="112" y="294"/>
      <point x="105" y="301"/>
      <point x="96" y="301" type="curve" smooth="yes"/>
      <point x="87" y="301"/>
      <point x="80" y="294"/>
      <point x="80" y="285" type="curve" smooth="yes"/>
      <point x="80" y="110"/>
      <point x="223" y="-32"/>
      <point x="398" y="-32" type="curve" smooth="yes"/>
      <point x="615" y="-32" type="line" smooth="yes"/>
      <point x="791" y="-32"/>
      <point x="933" y="109"/>
      <point x="933" y="285" type="curve" smooth="yes"/>
      <point x="933" y="376" type="line" smooth="yes"/>
      <point x="933" y="551"/>
      <point x="791" y="693"/>
      <point x="615" y="693" type="curve" smooth="yes"/>
      <point x="417" y="693" type="line" smooth="yes"/>
      <point x="289" y="693"/>
      <point x="183" y="798"/>
      <point x="183" y="927" type="curve" smooth="yes"/>
      <point x="183" y="967" type="line" smooth="yes"/>
      <point x="183" y="1095"/>
      <point x="289" y="1200"/>
      <point x="417" y="1200" type="curve" smooth="yes"/>
      <point x="596" y="1200" type="line" smooth="yes"/>
      <point x="724" y="1200"/>
      <point x="830" y="1095"/>
    </contour>
  </outline>
</glyph>
<glyph name="V" format="1">
  <advance width="1092"/>
  <unicode hex="0056"/>
  <outline>
    <contour>
      <point x="105" y="1190" type="line"/>
      <point x="103" y="1198"/>
      <point x="93" y="1202"/>
      <point x="85" y="1199" type="curve" smooth="yes"/>
      <point x="77" y="1196"/>
      <point x="73" y="1187"/>
      <point x="76" y="1178" type="curve" smooth="yes"/>
      <point x="531" y="-23" type="line" smooth="yes"/>
      <point x="536" y="-38"/>
      <point x="555" y="-38"/>
      <point x="560" y="-23" type="curve" smooth="yes"/>
      <point x="1015" y="1178" type="line" smooth="yes"/>
      <point x="1018" y="1187"/>
      <point x="1014" y="1196"/>
      <point x="1006" y="1199" type="curve" smooth="yes"/>
      <point x="997" y="1202"/>
      <point x="988" y="1198"/>
      <point x="985" y="1190" type="curve" smooth="yes"/>
      <point x="531" y="-12" type="line"/>
      <point x="560" y="-12" type="line"/>
    </contour>
  </outline>
</glyph>
<glyph name="Y" format="1">
  <advance width="1073.0"/>
  <unicode hex="0059"/>
  <outline>
    <contour>
      <point x="997" y="1175" type="line"/>
      <point x="1002" y="1182"/>
      <point x="1000" y="1192"/>
      <point x="993" y="1197" type="curve" smooth="yes"/>
      <point x="986" y="1201"/>
      <point x="977" y="1199"/>
      <point x="972" y="1193" type="curve" smooth="yes"/>
      <point x="523" y="503" type="line"/>
      <point x="548" y="503" type="line"/>
      <point x="100" y="1193" type="line" smooth="yes"/>
      <point x="95" y="1199"/>
      <point x="86" y="1201"/>
      <point x="79" y="1197" type="curve" smooth="yes"/>
      <point x="72" y="1192"/>
      <point x="70" y="1182"/>
      <point x="75" y="1175" type="curve" smooth="yes"/>
      <point x="523" y="486" type="line" smooth="yes"/>
      <point x="528" y="476"/>
      <point x="542" y="476"/>
      <point x="548" y="486" type="curve" smooth="yes"/>
    </contour>
    <contour>
      <point x="519" y="11" type="line"/>
      <point x="519" y="2"/>
      <point x="526" y="-5"/>
      <point x="535" y="-5" type="curve" smooth="yes"/>
      <point x="544" y="-5"/>
      <point x="551" y="2"/>
      <point x="551" y="11" type="curve" smooth="yes"/>
      <point x="551" y="495" type="line" smooth="yes"/>
      <point x="551" y="504"/>
      <point x="544" y="511"/>
      <point x="535" y="511" type="curve" smooth="yes"/>
      <point x="526" y="511"/>
      <point x="519" y="504"/>
      <point x="519" y="495" type="curve" smooth="yes"/>
    </contour>
  </outline>
</glyph>
<glyph name="bracketright" format="1">
  <advance width="444.0"/>
  <unicode hex="005D"/>
  <outline>
    <contour>
      <point x="76" y="0" type="line"/>
      <point x="67" y="0"/>
      <point x="60" y="-7"/>
      <point x="60" y="-16" type="curve" smooth="yes"/>
      <point x="60" y="-25"/>
      <point x="67" y="-32"/>
      <point x="76" y="-32" type="curve" smooth="yes"/>
      <point x="321" y="-32" type="line" smooth="yes"/>
      <point x="330" y="-32"/>
      <point x="337" y="-25"/>
      <point x="337" y="-16" type="curve" smooth="yes"/>
      <point x="337" y="1216" type="line" smooth="yes"/>
      <point x="337" y="1225"/>
      <point x="330" y="1232"/>
      <point x="321" y="1232" type="curve" smooth="yes"/>
      <point x="76" y="1232" type="line" smooth="yes"/>
      <point x="67" y="1232"/>
      <point x="60" y="1225"/>
      <point x="60" y="1216" type="curve" smooth="yes"/>
      <point x="60" y="1207"/>
      <point x="67" y="1200"/>
      <point x="76" y="1200" type="curve" smooth="yes"/>
      <point x="321" y="1200" type="line"/>
      <point x="305" y="1216" type="line"/>
      <point x="305" y="-16" type="line"/>
      <point x="321" y="0" type="line"/>
    </contour>
  </outline>
</glyph>
<glyph name="a" format="1">
  <advance width="935"/>
  <unicode hex="0061"/>
  <outline>
    <contour>
      <point x="823" y="23" type="line"/>
      <point x="823" y="14"/>
      <point x="830" y="7"/>
      <point x="839" y="7" type="curve" smooth="yes"/>
      <point x="848" y="7"/>
      <point x="855" y="14"/>
      <point x="855" y="23" type="curve" smooth="yes"/>
      <point x="855" y="535" type="line" smooth="yes"/>
      <point x="855" y="748"/>
      <point x="681" y="922"/>
      <point x="467" y="922" type="curve" smooth="yes"/>
      <point x="254" y="922"/>
      <point x="80" y="748"/>
      <point x="80" y="535" type="curve" smooth="yes"/>
      <point x="80" y="371" type="line" smooth="yes"/>
      <point x="80" y="158"/>
      <point x="254" y="-16"/>
      <point x="467" y="-16" type="curve" smooth="yes"/>
      <point x="681" y="-16"/>
      <point x="855" y="159"/>
      <point x="855" y="363" type="curve" smooth="yes"/>
      <point x="855" y="372"/>
      <point x="848" y="379"/>
      <point x="839" y="379" type="curve" smooth="yes"/>
      <point x="830" y="379"/>
      <point x="823" y="372"/>
      <point x="823" y="363" type="curve" smooth="yes"/>
      <point x="823" y="175"/>
      <point x="662" y="16"/>
      <point x="467" y="16" type="curve" smooth="yes"/>
      <point x="272" y="16"/>
      <point x="112" y="176"/>
      <point x="112" y="371" type="curve" smooth="yes"/>
      <point x="112" y="535" type="line" smooth="yes"/>
      <point x="112" y="730"/>
      <point x="272" y="890"/>
      <point x="467" y="890" type="curve" smooth="yes"/>
      <point x="663" y="890"/>
      <point x="823" y="730"/>
      <point x="823" y="535" type="curve" smooth="yes"/>
    </contour>
  </outline>
</glyph>
<glyph name="d" format="1">
  <advance width="935"/>
  <unicode hex="0064"/>
  <outline>
    <contour>
      <point x="855" y="535" type="curve" smooth="yes"/>
      <point x="855" y="748"/>
      <point x="681" y="922"/>
      <point x="467" y="922" type="curve" smooth="yes"/>
      <point x="254" y="922"/>
      <point x="80" y="748"/>
      <point x="80" y="535" type="curve" smooth="yes"/>
      <point x="80" y="371" type="line" smooth="yes"/>
      <point x="80" y="158"/>
      <point x="254" y="-16"/>
      <point x="467" y="-16" type="curve" smooth="yes"/>
      <point x="681" y="-16"/>
      <point x="855" y="158"/>
      <point x="855" y="371" type="curve" smooth="yes"/>
      <point x="855" y="1200" type="line" smooth="yes"/>
      <point x="855" y="1209"/>
      <point x="848" y="1216"/>
      <point x="839" y="1216" type="curve" smooth="yes"/>
      <point x="830" y="1216"/>
      <point x="823" y="1209"/>
      <point x="823" y="1200" type="curve" smooth="yes"/>
      <point x="823" y="371" type="line" smooth="yes"/>
      <point x="823" y="176"/>
      <point x="663" y="16"/>
      <point x="467" y="16" type="curve" smooth="yes"/>
      <point x="272" y="16"/>
      <point x="112" y="176"/>
      <point x="112" y="371" type="curve" smooth="yes"/>
      <point x="112" y="535" type="line" smooth="yes"/>
      <point x="112" y="730"/>
      <point x="272" y="890"/>
      <point x="467" y="890" type="curve" smooth="yes"/>
      <point x="663" y="890"/>
      <point x="823" y="730"/>
      <point x="823" y="535" type="curve" smooth="yes"/>
      <point x="823" y="526"/>
      <point x="830" y="519"/>
      <point x="839" y="519" type="curve" smooth="yes"/>
      <point x="848" y="519"/>
      <point x="855" y="526"/>
    </contour>
  </outline>
</glyph>
<glyph name="k" format="1">
  <advance width="865"/>
  <unicode hex="006B"/>
  <outline>
    <contour>
      <point x="112" y="1216" type="line"/>
      <point x="112" y="1225"/>
      <point x="105" y="1232"/>
      <point x="96" y="1232" type="curve" smooth="yes"/>
      <point x="87" y="1232"/>
      <point x="80" y="1225"/>
      <point x="80" y="1216" type="curve" smooth="yes"/>
      <point x="80" y="16" type="line" smooth="yes"/>
      <point x="80" y="7"/>
      <point x="87" y="0"/>
      <point x="96" y="0" type="curve" smooth="yes"/>
      <point x="105" y="0"/>
      <point x="112" y="7"/>
      <point x="112" y="16" type="curve" smooth="yes"/>
    </contour>
    <contour>
      <point x="771" y="877" type="line"/>
      <point x="778" y="881"/>
      <point x="780" y="892"/>
      <point x="775" y="899" type="curve" smooth="yes"/>
      <point x="771" y="906"/>
      <point x="760" y="908"/>
      <point x="753" y="903" type="curve" smooth="yes"/>
      <point x="96" y="483" type="line" smooth="yes"/>
      <point x="90" y="479"/>
      <point x="87" y="468"/>
      <point x="92" y="461" type="curve" smooth="yes"/>
      <point x="97" y="454"/>
      <point x="107" y="452"/>
      <point x="114" y="457" type="curve" smooth="yes"/>
    </contour>
    <contour>
      <point x="147" y="494" type="line"/>
      <point x="139" y="498"/>
      <point x="129" y="497"/>
      <point x="124" y="491" type="curve" smooth="yes"/>
      <point x="119" y="483"/>
      <point x="120" y="473"/>
      <point x="127" y="468" type="curve" smooth="yes"/>
      <point x="767" y="3" type="line" smooth="yes"/>
      <point x="775" y="-2"/>
      <point x="785" y="-1"/>
      <point x="790" y="6" type="curve" smooth="yes"/>
      <point x="795" y="13"/>
      <point x="794" y="24"/>
      <point x="787" y="29" type="curve" smooth="yes"/>
    </contour>
  </outline>
</glyph>
<glyph name="l" format="1">
  <advance width="312.0"/>
  <unicode hex="006C"/>
  <outline>
    <contour>
      <point x="156" y="0" type="curve" smooth="yes"/>
      <point x="164" y="0"/>
      <point x="172" y="8"/>
      <point x="172" y="16" type="curve" smooth="yes"/>
      <point x="172" y="1216" type="line" smooth="yes"/>
      <point x="172" y="1224"/>
      <point x="164" y="1232"/>
      <point x="156" y="1232" type="curve" smooth="yes"/>
      <point x="148" y="1232"/>
      <point x="140" y="1224"/>
      <point x="140" y="1216" type="curve" smooth="yes"/>
      <point x="140" y="16" type="line" smooth="yes"/>
      <point x="140" y="8"/>
      <point x="148" y="0"/>
    </contour>
  </outline>
</glyph>
<glyph name="o" format="1">
  <advance width="935"/>
  <unicode hex="006F"/>
  <outline>
    <contour>
      <point x="80" y="371" type="line"/>
      <point x="80" y="158"/>
      <point x="254" y="-16"/>
      <point x="467" y="-16" type="curve" smooth="yes"/>
      <point x="681" y="-16"/>
      <point x="855" y="158"/>
      <point x="855" y="371" type="curve" smooth="yes"/>
      <point x="855" y="535" type="line" smooth="yes"/>
      <point x="855" y="748"/>
      <point x="681" y="922"/>
      <point x="467" y="922" type="curve" smooth="yes"/>
      <point x="254" y="922"/>
      <point x="80" y="748"/>
      <point x="80" y="535" type="curve" smooth="yes"/>
    </contour>
    <contour>
      <point x="112" y="371" type="curve" smooth="yes"/>
      <point x="112" y="535" type="line" smooth="yes"/>
      <point x="112" y="730"/>
      <point x="272" y="890"/>
      <point x="467" y="890" type="curve" smooth="yes"/>
      <point x="663" y="890"/>
      <point x="823" y="730"/>
      <point x="823" y="535" type="curve" smooth="yes"/>
      <point x="823" y="371" type="line" smooth="yes"/>
      <point x="823" y="176"/>
      <point x="663" y="16"/>
      <point x="467" y="16" type="curve" smooth="yes"/>
      <point x="272" y="16"/>
      <point x="112" y="176"/>
    </contour>
  </outline>
</glyph>
<glyph name="s" format="1">
  <advance width="940"/>
  <unicode hex="0073"/>
  <outline>
    <contour>
      <point x="112" y="227" type="curve" smooth="yes"/>
      <point x="112" y="236"/>
      <point x="105" y="243"/>
      <point x="96" y="243" type="curve" smooth="yes"/>
      <point x="87" y="243"/>
      <point x="80" y="236"/>
      <point x="80" y="227" type="curve" smooth="yes"/>
      <point x="80" y="93"/>
      <point x="189" y="-16"/>
      <point x="323" y="-16" type="curve" smooth="yes"/>
      <point x="617" y="-16" type="line" smooth="yes"/>
      <point x="751" y="-16"/>
      <point x="860" y="93"/>
      <point x="860" y="227" type="curve" smooth="yes"/>
      <point x="860" y="231" type="line" smooth="yes"/>
      <point x="860" y="365"/>
      <point x="751" y="474"/>
      <point x="617" y="474" type="curve" smooth="yes"/>
      <point x="323" y="474" type="line" smooth="yes"/>
      <point x="209" y="474"/>
      <point x="115" y="568"/>
      <point x="115" y="682" type="curve" smooth="yes"/>
      <point x="115" y="796"/>
      <point x="209" y="890"/>
      <point x="323" y="890" type="curve" smooth="yes"/>
      <point x="617" y="890" type="line" smooth="yes"/>
      <point x="732" y="890"/>
      <point x="825" y="796"/>
      <point x="825" y="682" type="curve" smooth="yes"/>
      <point x="825" y="673"/>
      <point x="832" y="666"/>
      <point x="841" y="666" type="curve" smooth="yes"/>
      <point x="850" y="666"/>
      <point x="857" y="673"/>
      <point x="857" y="682" type="curve" smooth="yes"/>
      <point x="857" y="814"/>
      <point x="750" y="922"/>
      <point x="617" y="922" type="curve" smooth="yes"/>
      <point x="323" y="922" type="line" smooth="yes"/>
      <point x="191" y="922"/>
      <point x="83" y="814"/>
      <point x="83" y="682" type="curve" smooth="yes"/>
      <point x="83" y="550"/>
      <point x="191" y="442"/>
      <point x="323" y="442" type="curve" smooth="yes"/>
      <point x="617" y="442" type="line" smooth="yes"/>
      <point x="733" y="442"/>
      <point x="828" y="347"/>
      <point x="828" y="231" type="curve" smooth="yes"/>
      <point x="828" y="227" type="line" smooth="yes"/>
      <point x="828" y="111"/>
      <point x="733" y="16"/>
      <point x="617" y="16" type="curve" smooth="yes"/>
      <point x="323" y="16" type="line" smooth="yes"/>
      <point x="207" y="16"/>
      <point x="112" y="111"/>
    </contour>
  </outline>
</glyph>
<glyph name="v" format="1">
  <advance width="908"/>
  <unicode hex="0076"/>
  <outline>
    <contour>
      <point x="91" y="907" type="line"/>
      <point x="88" y="915"/>
      <point x="78" y="919"/>
      <point x="70" y="915" type="curve" smooth="yes"/>
      <point x="62" y="912"/>
      <point x="58" y="903"/>
      <point x="61" y="895" type="curve" smooth="yes"/>
      <point x="439" y="-6" type="line" smooth="yes"/>
      <point x="445" y="-20"/>
      <point x="463" y="-20"/>
      <point x="469" y="-6" type="curve" smooth="yes"/>
      <point x="847" y="895" type="line" smooth="yes"/>
      <point x="850" y="903"/>
      <point x="846" y="912"/>
      <point x="838" y="915" type="curve" smooth="yes"/>
      <point x="830" y="919"/>
      <point x="820" y="915"/>
      <point x="817" y="907" type="curve" smooth="yes"/>
      <point x="439" y="6" type="line"/>
      <point x="469" y="6" type="line"/>
    </contour>
  </outline>
</glyph>
<glyph name="x" format="1">
  <advance width="934"/>
  <unicode hex="0078"/>
  <outline>
    <contour>
      <point x="851" y="880" type="line"/>
      <point x="856" y="887"/>
      <point x="855" y="897"/>
      <point x="848" y="902" type="curve" smooth="yes"/>
      <point x="842" y="907"/>
      <point x="832" y="906"/>
      <point x="827" y="900" type="curve" smooth="yes"/>
      <point x="84" y="26" type="line" smooth="yes"/>
      <point x="79" y="19"/>
      <point x="80" y="9"/>
      <point x="86" y="4" type="curve" smooth="yes"/>
      <point x="93" y="-1"/>
      <point x="103" y="0"/>
      <point x="108" y="6" type="curve" smooth="yes"/>
    </contour>
    <contour>
      <point x="827" y="6" type="line"/>
      <point x="832" y="0"/>
      <point x="842" y="-1"/>
      <point x="848" y="4" type="curve" smooth="yes"/>
      <point x="855" y="9"/>
      <point x="856" y="19"/>
      <point x="851" y="26" type="curve" smooth="yes"/>
      <point x="108" y="900" type="line" smooth="yes"/>
      <point x="103" y="906"/>
      <point x="93" y="907"/>
      <point x="86" y="902" type="curve" smooth="yes"/>
      <point x="80" y="897"/>
      <point x="79" y="887"/>
      <point x="84" y="880" type="curve" smooth="yes"/>
    </contour>
  </outline>
</glyph>
<glyph name="sterling" format="1">
  <advance width="829"/>
  <unicode hex="00A3"/>
  <outline>
    <contour>
      <point x="633" y="1184" type="curve" smooth="yes"/>
      <point x="642" y="1184"/>
      <point x="649" y="1191"/>
      <point x="649" y="1200" type="curve" smooth="yes"/>
      <point x="649" y="1209"/>
      <point x="642" y="1216"/>
      <point x="633" y="1216" type="curve" smooth="yes"/>
      <point x="419" y="1216"/>
      <point x="245" y="1042"/>
      <point x="245" y="829" type="curve" smooth="yes"/>
      <point x="245" y="177" type="line" smooth="yes"/>
      <point x="245" y="88"/>
      <point x="174" y="16"/>
      <point x="85" y="16" type="curve"/>
      <point x="85" y="-16" type="line"/>
      <point x="733" y="-16" type="line" smooth="yes"/>
      <point x="742" y="-16"/>
      <point x="749" y="-9"/>
      <point x="749" y="0" type="curve" smooth="yes"/>
      <point x="749" y="9"/>
      <point x="742" y="16"/>
      <point x="733" y="16" type="curve" smooth="yes"/>
      <point x="85" y="16" type="line"/>
      <point x="85" y="-16" type="line"/>
      <point x="192" y="-16"/>
      <point x="277" y="70"/>
      <point x="277" y="177" type="curve" smooth="yes"/>
      <point x="277" y="829" type="line" smooth="yes"/>
      <point x="277" y="1024"/>
      <point x="437" y="1184"/>
    </contour>
    <contour>
      <point x="518" y="601" type="line"/>
      <point x="527" y="601"/>
      <point x="534" y="608"/>
      <point x="534" y="617" type="curve" smooth="yes"/>
      <point x="534" y="626"/>
      <point x="527" y="633"/>
      <point x="518" y="633" type="curve" smooth="yes"/>
      <point x="272" y="633" type="line" smooth="yes"/>
      <point x="263" y="633"/>
      <point x="256" y="626"/>
      <point x="256" y="617" type="curve" smooth="yes"/>
      <point x="256" y="608"/>
      <point x="263" y="601"/>
      <point x="272" y="601" type="curve" smooth="yes"/>
    </contour>
  </outline>
</glyph>
<glyph name="copyright" format="1">
  <advance width="1102.0"/>
  <unicode hex="00A9"/>
  <outline>
    <contour>
      <point x="763" y="875" type="curve" smooth="yes"/>
      <point x="767" y="868"/>
      <point x="776" y="865"/>
      <point x="783" y="869" type="curve" smooth="yes"/>
      <point x="789" y="873"/>
      <point x="792" y="883"/>
      <point x="788" y="889" type="curve" smooth="yes"/>
      <point x="740" y="963"/>
      <point x="649" y="1015"/>
      <point x="549" y="1015" type="curve" smooth="yes"/>
      <point x="373" y="1015"/>
      <point x="229" y="872"/>
      <point x="229" y="697" type="curve" smooth="yes"/>
      <point x="229" y="492" type="line" smooth="yes"/>
      <point x="229" y="316"/>
      <point x="373" y="173"/>
      <point x="549" y="173" type="curve" smooth="yes"/>
      <point x="649" y="173"/>
      <point x="740" y="225"/>
      <point x="788" y="299" type="curve" smooth="yes"/>
      <point x="792" y="306"/>
      <point x="789" y="315"/>
      <point x="783" y="319" type="curve" smooth="yes"/>
      <point x="776" y="323"/>
      <point x="767" y="321"/>
      <point x="763" y="314" type="curve" smooth="yes"/>
      <point x="717" y="249"/>
      <point x="638" y="205"/>
      <point x="549" y="205" type="curve" smooth="yes"/>
      <point x="390" y="205"/>
      <point x="261" y="333"/>
      <point x="261" y="492" type="curve" smooth="yes"/>
      <point x="261" y="697" type="line" smooth="yes"/>
      <point x="261" y="855"/>
      <point x="390" y="983"/>
      <point x="549" y="983" type="curve" smooth="yes"/>
      <point x="638" y="983"/>
      <point x="717" y="939"/>
    </contour>
    <component base="O"/>
  </outline>
</glyph>
<glyph name="logicalnot" format="1">
  <advance width="840.0"/>
  <unicode hex="00AC"/>
  <outline>
    <contour>
      <point x="183" y="442" type="line"/>
      <point x="174" y="442"/>
      <point x="167" y="435"/>
      <point x="167" y="426" type="curve" smooth="yes"/>
      <point x="167" y="417"/>
      <point x="174" y="410"/>
      <point x="183" y="410" type="curve" smooth="yes"/>
      <point x="657" y="410" type="line"/>
      <point x="641" y="426" type="line"/>
      <point x="641" y="214" type="line" smooth="yes"/>
      <point x="641" y="205"/>
      <point x="648" y="198"/>
      <point x="657" y="198" type="curve" smooth="yes"/>
      <point x="666" y="198"/>
      <point x="673" y="205"/>
      <point x="673" y="214" type="curve" smooth="yes"/>
      <point x="673" y="426" type="line" smooth="yes"/>
      <point x="673" y="435"/>
      <point x="666" y="442"/>
      <point x="657" y="442" type="curve" smooth="yes"/>
    </contour>
  </outline>
</glyph>
<glyph name="degree" format="1">
  <advance width="438.0"/>
  <unicode hex="00B0"/>
  <note>
  </note>
  <outline>
    <contour>
      <point x="226" y="925" type="curve" smooth="yes"/>
      <point x="306" y="925"/>
      <point x="372" y="991"/>
      <point x="372" y="1072" type="curve" smooth="yes"/>
      <point x="372" y="1151"/>
      <point x="306" y="1217"/>
      <point x="226" y="1217" type="curve" smooth="yes"/>
      <point x="146" y="1217"/>
      <point x="80" y="1151"/>
      <point x="80" y="1072" type="curve" smooth="yes"/>
      <point x="80" y="991"/>
      <point x="146" y="925"/>
    </contour>
    <contour>
      <point x="226" y="957" type="curve" smooth="yes"/>
      <point x="163" y="957"/>
      <point x="112" y="1009"/>
      <point x="112" y="1072" type="curve" smooth="yes"/>
      <point x="112" y="1134"/>
      <point x="163" y="1185"/>
      <point x="226" y="1185" type="curve" smooth="yes"/>
      <point x="289" y="1185"/>
      <point x="340" y="1134"/>
      <point x="340" y="1072" type="curve" smooth="yes"/>
      <point x="340" y="1009"/>
      <point x="289" y="957"/>
    </contour>
  </outline>
</glyph>
<glyph name="paragraph" format="1">
  <advance width="640.0"/>
  <unicode hex="00B6"/>
  <outline>
    <contour>
      <point x="492" y="16" type="line"/>
      <point x="492" y="7"/>
      <point x="499" y="0"/>
      <point x="508" y="0" type="curve" smooth="yes"/>
      <point x="517" y="0"/>
      <point x="524" y="7"/>
      <point x="524" y="16" type="curve" smooth="yes"/>
      <point x="524" y="1184" type="line" smooth="yes"/>
      <point x="524" y="1193"/>
      <point x="517" y="1200"/>
      <point x="508" y="1200" type="curve" smooth="yes"/>
      <point x="499" y="1200"/>
      <point x="492" y="1193"/>
      <point x="492" y="1184" type="curve" smooth="yes"/>
    </contour>
    <contour>
      <point x="402" y="16" type="line"/>
      <point x="402" y="7"/>
      <point x="409" y="0"/>
      <point x="418" y="0" type="curve" smooth="yes"/>
      <point x="427" y="0"/>
      <point x="434" y="7"/>
      <point x="434" y="16" type="curve" smooth="yes"/>
      <point x="434" y="1184" type="line" smooth="yes"/>
      <point x="434" y="1193"/>
      <point x="427" y="1200"/>
      <point x="418" y="1200" type="curve" smooth="yes"/>
      <point x="409" y="1200"/>
      <point x="402" y="1193"/>
      <point x="402" y="1184" type="curve" smooth="yes"/>
    </contour>
    <contour>
      <point x="544" y="1184" type="line"/>
      <point x="553" y="1184"/>
      <point x="560" y="1191"/>
      <point x="560" y="1200" type="curve" smooth="yes"/>
      <point x="560" y="1209"/>
      <point x="553" y="1216"/>
      <point x="544" y="1216" type="curve" smooth="yes"/>
      <point x="334" y="1216" type="line" smooth="yes"/>
      <point x="194" y="1216"/>
      <point x="80" y="1102"/>
      <point x="80" y="962" type="curve" smooth="yes"/>
      <point x="80" y="821"/>
      <point x="194" y="707"/>
      <point x="334" y="707" type="curve" smooth="yes"/>
      <point x="409" y="707" type="line" smooth="yes"/>
      <point x="418" y="707"/>
      <point x="425" y="714"/>
      <point x="425" y="723" type="curve" smooth="yes"/>
      <point x="425" y="732"/>
      <point x="418" y="739"/>
      <point x="409" y="739" type="curve" smooth="yes"/>
      <point x="334" y="739" type="line" smooth="yes"/>
      <point x="212" y="739"/>
      <point x="112" y="839"/>
      <point x="112" y="962" type="curve" smooth="yes"/>
      <point x="112" y="1084"/>
      <point x="212" y="1184"/>
      <point x="334" y="1184" type="curve" smooth="yes"/>
    </contour>
  </outline>
</glyph>
<glyph name="questiondown" format="1">
  <advance width="935"/>
  <unicode hex="00BF"/>
  <outline>
    <contour>
      <point x="467" y="1220" type="curve" smooth="yes"/>
      <point x="455" y="1220"/>
      <point x="443" y="1208"/>
      <point x="443" y="1196" type="curve" smooth="yes"/>
      <point x="443" y="1184"/>
      <point x="455" y="1172"/>
      <point x="467" y="1172" type="curve" smooth="yes"/>
      <point x="479" y="1172"/>
      <point x="491" y="1184"/>
      <point x="491" y="1196" type="curve" smooth="yes"/>
      <point x="491" y="1208"/>
      <point x="479" y="1220"/>
    </contour>
    <contour>
      <point x="483" y="1002" type="line"/>
      <point x="483" y="1011"/>
      <point x="476" y="1018"/>
      <point x="467" y="1018" type="curve" smooth="yes"/>
      <point x="458" y="1018"/>
      <point x="451" y="1011"/>
      <point x="451" y="1002" type="curve" smooth="yes"/>
      <point x="451" y="813" type="line"/>
      <point x="467" y="829" type="line"/>
      <point x="254" y="829"/>
      <point x="80" y="655"/>
      <point x="80" y="442" type="curve" smooth="yes"/>
      <point x="80" y="371" type="line" smooth="yes"/>
      <point x="80" y="158"/>
      <point x="254" y="-16"/>
      <point x="467" y="-16" type="curve" smooth="yes"/>
      <point x="681" y="-16"/>
      <point x="855" y="158"/>
      <point x="855" y="371" type="curve" smooth="yes"/>
      <point x="855" y="380"/>
      <point x="848" y="387"/>
      <point x="839" y="387" type="curve" smooth="yes"/>
      <point x="830" y="387"/>
      <point x="823" y="380"/>
      <point x="823" y="371" type="curve" smooth="yes"/>
      <point x="823" y="176"/>
      <point x="663" y="16"/>
      <point x="467" y="16" type="curve" smooth="yes"/>
      <point x="272" y="16"/>
      <point x="112" y="176"/>
      <point x="112" y="371" type="curve" smooth="yes"/>
      <point x="112" y="442" type="line" smooth="yes"/>
      <point x="112" y="637"/>
      <point x="272" y="797"/>
      <point x="467" y="797" type="curve" smooth="yes"/>
      <point x="476" y="797"/>
      <point x="483" y="804"/>
      <point x="483" y="813" type="curve" smooth="yes"/>
    </contour>
  </outline>
</glyph>
<glyph name="AE" format="1">
  <advance width="1121"/>
  <unicode hex="00C6"/>
  <outline>
    <contour>
      <point x="1025" y="1173" type="line"/>
      <point x="1034" y="1173"/>
      <point x="1041" y="1180"/>
      <point x="1041" y="1189" type="curve" smooth="yes"/>
      <point x="1041" y="1198"/>
      <point x="1034" y="1205"/>
      <point x="1025" y="1205" type="curve" smooth="yes"/>
      <point x="372" y="1205" type="line" smooth="yes"/>
      <point x="365" y="1205"/>
      <point x="358" y="1200"/>
      <point x="357" y="1193" type="curve" smooth="yes"/>
      <point x="73" y="20" type="line" smooth="yes"/>
      <point x="70" y="11"/>
      <point x="76" y="3"/>
      <point x="84" y="1" type="curve" smooth="yes"/>
      <point x="93" y="-2"/>
      <point x="101" y="4"/>
      <point x="103" y="12" type="curve" smooth="yes"/>
      <point x="387" y="1186" type="line"/>
      <point x="372" y="1173" type="line"/>
    </contour>
    <contour>
      <point x="156" y="295" type="line"/>
      <point x="147" y="295"/>
      <point x="140" y="288"/>
      <point x="140" y="279" type="curve" smooth="yes"/>
      <point x="140" y="270"/>
      <point x="147" y="263"/>
      <point x="156" y="263" type="curve" smooth="yes"/>
      <point x="528" y="263" type="line" smooth="yes"/>
      <point x="537" y="263"/>
      <point x="544" y="270"/>
      <point x="544" y="279" type="curve" smooth="yes"/>
      <point x="544" y="288"/>
      <point x="537" y="295"/>
      <point x="528" y="295" type="curve" smooth="yes"/>
    </contour>
    <contour>
      <point x="1025" y="0" type="line"/>
      <point x="1034" y="0"/>
      <point x="1041" y="7"/>
      <point x="1041" y="16" type="curve" smooth="yes"/>
      <point x="1041" y="25"/>
      <point x="1034" y="32"/>
      <point x="1025" y="32" type="curve" smooth="yes"/>
      <point x="533" y="32" type="line"/>
      <point x="549" y="16" type="line"/>
      <point x="549" y="1188" type="line" smooth="yes"/>
      <point x="549" y="1197"/>
      <point x="542" y="1204"/>
      <point x="533" y="1204" type="curve" smooth="yes"/>
      <point x="524" y="1204"/>
      <point x="517" y="1197"/>
      <point x="517" y="1188" type="curve" smooth="yes"/>
      <point x="517" y="16" type="line" smooth="yes"/>
      <point x="517" y="7"/>
      <point x="524" y="0"/>
      <point x="533" y="0" type="curve" smooth="yes"/>
    </contour>
    <contour>
      <point x="538" y="563" type="line"/>
      <point x="529" y="563"/>
      <point x="522" y="556"/>
      <point x="522" y="547" type="curve" smooth="yes"/>
      <point x="522" y="538"/>
      <point x="529" y="531"/>
      <point x="538" y="531" type="curve" smooth="yes"/>
      <point x="807" y="531" type="line" smooth="yes"/>
      <point x="816" y="531"/>
      <point x="823" y="538"/>
      <point x="823" y="547" type="curve" smooth="yes"/>
      <point x="823" y="556"/>
      <point x="816" y="563"/>
      <point x="807" y="563" type="curve" smooth="yes"/>
    </contour>
  </outline>
</glyph>
<glyph name="Eth" format="1">
  <advance width="1102.0"/>
  <unicode hex="00D0"/>
  <outline>
    <contour>
      <point x="228" y="530" type="line"/>
      <point x="236" y="530"/>
      <point x="244" y="538"/>
      <point x="244" y="546" type="curve" smooth="yes"/>
      <point x="244" y="556"/>
      <point x="236" y="562"/>
      <point x="228" y="562" type="curve" smooth="yes"/>
      <point x="16" y="562" type="line" smooth="yes"/>
      <point x="8" y="562"/>
      <point x="0" y="556"/>
      <point x="0" y="546" type="curve" smooth="yes"/>
      <point x="0" y="538"/>
      <point x="8" y="530"/>
      <point x="16" y="530" type="curve" smooth="yes"/>
    </contour>
    <component base="D"/>
  </outline>
</glyph>
<glyph name="multiply" format="1">
  <advance width="840"/>
  <unicode hex="00D7"/>
  <outline>
    <contour>
      <point x="198" y="183" type="curve" smooth="yes"/>
      <point x="663" y="647" type="line" smooth="yes"/>
      <point x="669" y="653"/>
      <point x="669" y="663"/>
      <point x="663" y="669" type="curve" smooth="yes"/>
      <point x="657" y="675"/>
      <point x="647" y="675"/>
      <point x="641" y="669" type="curve" smooth="yes"/>
      <point x="176" y="205" type="line" smooth="yes"/>
      <point x="170" y="199"/>
      <point x="170" y="189"/>
      <point x="176" y="183" type="curve" smooth="yes"/>
      <point x="182" y="177"/>
      <point x="192" y="177"/>
    </contour>
    <contour>
      <point x="177" y="647" type="curve" smooth="yes"/>
      <point x="642" y="183" type="line" smooth="yes"/>
      <point x="648" y="177"/>
      <point x="658" y="177"/>
      <point x="664" y="183" type="curve" smooth="yes"/>
      <point x="670" y="189"/>
      <point x="670" y="199"/>
      <point x="664" y="205" type="curve" smooth="yes"/>
      <point x="199" y="669" type="line" smooth="yes"/>
      <point x="193" y="675"/>
      <point x="183" y="675"/>
      <point x="177" y="669" type="curve" smooth="yes"/>
      <point x="171" y="663"/>
      <point x="171" y="653"/>
    </contour>
  </outline>
</glyph>
<glyph name="Thorn" format="1">
  <advance width="1037"/>
  <unicode hex="00DE"/>
  <outline>
    <contour>
      <point x="80" y="-160" type="line"/>
      <point x="80" y="-169"/>
      <point x="87" y="-176"/>
      <point x="96" y="-176" type="curve" smooth="yes"/>
      <point x="105" y="-176"/>
      <point x="112" y="-169"/>
      <point x="112" y="-160" type="curve" smooth="yes"/>
      <point x="112" y="1200" type="line" smooth="yes"/>
      <point x="112" y="1209"/>
      <point x="105" y="1216"/>
      <point x="96" y="1216" type="curve" smooth="yes"/>
      <point x="87" y="1216"/>
      <point x="80" y="1209"/>
      <point x="80" y="1200" type="curve" smooth="yes"/>
    </contour>
    <contour>
      <point x="106" y="1028" type="line"/>
      <point x="97" y="1028"/>
      <point x="90" y="1021"/>
      <point x="90" y="1012" type="curve" smooth="yes"/>
      <point x="90" y="1003"/>
      <point x="97" y="996"/>
      <point x="106" y="996" type="curve" smooth="yes"/>
      <point x="520" y="996" type="line" smooth="yes"/>
      <point x="745" y="996"/>
      <point x="929" y="812"/>
      <point x="929" y="587" type="curve" smooth="yes"/>
      <point x="929" y="425" type="line" smooth="yes"/>
      <point x="929" y="200"/>
      <point x="745" y="16"/>
      <point x="520" y="16" type="curve" smooth="yes"/>
      <point x="105" y="16" type="line" smooth="yes"/>
      <point x="96" y="16"/>
      <point x="89" y="9"/>
      <point x="89" y="0" type="curve" smooth="yes"/>
      <point x="89" y="-9"/>
      <point x="96" y="-16"/>
      <point x="105" y="-16" type="curve" smooth="yes"/>
      <point x="520" y="-16" type="line" smooth="yes"/>
      <point x="763" y="-16"/>
      <point x="961" y="182"/>
      <point x="961" y="425" type="curve" smooth="yes"/>
      <point x="961" y="587" type="line" smooth="yes"/>
      <point x="961" y="830"/>
      <point x="763" y="1028"/>
      <point x="520" y="1028" type="curve" smooth="yes"/>
    </contour>
  </outline>
</glyph>
<glyph name="OE" format="1">
  <advance width="1449"/>
  <unicode hex="0152"/>
  <outline>
    <contour>
      <point x="1357" y="0" type="line"/>
      <point x="1366" y="0"/>
      <point x="1373" y="7"/>
      <point x="1373" y="16" type="curve" smooth="yes"/>
      <point x="1373" y="25"/>
      <point x="1366" y="32"/>
      <point x="1357" y="32" type="curve" smooth="yes"/>
      <point x="853" y="32" type="line"/>
      <point x="869" y="16" type="line"/>
      <point x="869" y="1184" type="line"/>
      <point x="853" y="1168" type="line"/>
      <point x="1357" y="1168" type="line" smooth="yes"/>
      <point x="1366" y="1168"/>
      <point x="1373" y="1175"/>
      <point x="1373" y="1184" type="curve" smooth="yes"/>
      <point x="1373" y="1193"/>
      <point x="1366" y="1200"/>
      <point x="1357" y="1200" type="curve" smooth="yes"/>
      <point x="853" y="1200" type="line" smooth="yes"/>
      <point x="844" y="1200"/>
      <point x="837" y="1193"/>
      <point x="837" y="1184" type="curve" smooth="yes"/>
      <point x="837" y="16" type="line" smooth="yes"/>
      <point x="837" y="7"/>
      <point x="844" y="0"/>
      <point x="853" y="0" type="curve" smooth="yes"/>
    </contour>
    <contour>
      <point x="858" y="563" type="line"/>
      <point x="849" y="563"/>
      <point x="842" y="556"/>
      <point x="842" y="547" type="curve" smooth="yes"/>
      <point x="842" y="538"/>
      <point x="849" y="531"/>
      <point x="858" y="531" type="curve" smooth="yes"/>
      <point x="1102" y="531" type="line" smooth="yes"/>
      <point x="1111" y="531"/>
      <point x="1118" y="538"/>
      <point x="1118" y="547" type="curve" smooth="yes"/>
      <point x="1118" y="556"/>
      <point x="1111" y="563"/>
      <point x="1102" y="563" type="curve" smooth="yes"/>
    </contour>
    <contour>
      <point x="834" y="1058" type="curve" smooth="yes"/>
      <point x="840" y="1052"/>
      <point x="850" y="1050"/>
      <point x="856" y="1056" type="curve" smooth="yes"/>
      <point x="862" y="1061"/>
      <point x="864" y="1071"/>
      <point x="858" y="1078" type="curve" smooth="yes"/>
      <point x="784" y="1161"/>
      <point x="672" y="1216"/>
      <point x="547" y="1216" type="curve" smooth="yes"/>
      <point x="287" y="1216"/>
      <point x="76" y="1005"/>
      <point x="76" y="745" type="curve" smooth="yes"/>
      <point x="76" y="445" type="line" smooth="yes"/>
      <point x="76" y="185"/>
      <point x="287" y="-27"/>
      <point x="547" y="-27" type="curve" smooth="yes"/>
      <point x="673" y="-27"/>
      <point x="785" y="28"/>
      <point x="860" y="113" type="curve" smooth="yes"/>
      <point x="865" y="119"/>
      <point x="864" y="129"/>
      <point x="857" y="134" type="curve" smooth="yes"/>
      <point x="851" y="139"/>
      <point x="841" y="138"/>
      <point x="836" y="132" type="curve" smooth="yes"/>
      <point x="767" y="55"/>
      <point x="662" y="5"/>
      <point x="547" y="5" type="curve" smooth="yes"/>
      <point x="305" y="5"/>
      <point x="108" y="203"/>
      <point x="108" y="445" type="curve" smooth="yes"/>
      <point x="108" y="745" type="line" smooth="yes"/>
      <point x="108" y="987"/>
      <point x="305" y="1184"/>
      <point x="547" y="1184" type="curve" smooth="yes"/>
      <point x="662" y="1184"/>
      <point x="766" y="1134"/>
    </contour>
  </outline>
</glyph>
<glyph name="breve" format="1">
  <advance width="292.0"/>
  <unicode hex="02D8"/>
  <outline>
    <contour>
      <point x="105" y="1328" type="curve" smooth="yes"/>
      <point x="105" y="1337"/>
      <point x="98" y="1344"/>
      <point x="89" y="1344" type="curve" smooth="yes"/>
      <point x="80" y="1344"/>
      <point x="73" y="1337"/>
      <point x="73" y="1328" type="curve" smooth="yes"/>
      <point x="73" y="1288"/>
      <point x="106" y="1255"/>
      <point x="146" y="1255" type="curve" smooth="yes"/>
      <point x="186" y="1255"/>
      <point x="219" y="1288"/>
      <point x="219" y="1328" type="curve" smooth="yes"/>
      <point x="219" y="1337"/>
      <point x="212" y="1344"/>
      <point x="203" y="1344" type="curve" smooth="yes"/>
      <point x="194" y="1344"/>
      <point x="187" y="1337"/>
      <point x="187" y="1328" type="curve" smooth="yes"/>
      <point x="187" y="1306"/>
      <point x="168" y="1287"/>
      <point x="146" y="1287" type="curve" smooth="yes"/>
      <point x="124" y="1287"/>
      <point x="105" y="1306"/>
    </contour>
  </outline>
</glyph>
<glyph name="ring" format="1">
  <advance width="292.0"/>
  <unicode hex="02DA"/>
  <outline>
    <contour>
      <point x="197" y="1306" type="curve" smooth="yes"/>
      <point x="209" y="1334"/>
      <point x="196" y="1367"/>
      <point x="168" y="1379" type="curve" smooth="yes"/>
      <point x="140" y="1391"/>
      <point x="107" y="1378"/>
      <point x="95" y="1350" type="curve" smooth="yes"/>
      <point x="83" y="1322"/>
      <point x="96" y="1289"/>
      <point x="124" y="1277" type="curve" smooth="yes"/>
      <point x="152" y="1265"/>
      <point x="185" y="1278"/>
    </contour>
    <contour>
      <point x="175" y="1339" type="curve" smooth="yes"/>
      <point x="181" y="1323"/>
      <point x="173" y="1305"/>
      <point x="157" y="1299" type="curve" smooth="yes"/>
      <point x="141" y="1293"/>
      <point x="123" y="1301"/>
      <point x="117" y="1317" type="curve" smooth="yes"/>
      <point x="111" y="1333"/>
      <point x="119" y="1351"/>
      <point x="135" y="1357" type="curve" smooth="yes"/>
      <point x="151" y="1363"/>
      <point x="169" y="1355"/>
    </contour>
  </outline>
</glyph>
<glyph name="mu" format="1">
  <advance width="935"/>
  <unicode hex="03BC"/>
  <outline>
    <contour>
      <point x="80" y="-283" type="line"/>
      <point x="80" y="-292"/>
      <point x="87" y="-299"/>
      <point x="96" y="-299" type="curve" smooth="yes"/>
      <point x="105" y="-299"/>
      <point x="112" y="-292"/>
      <point x="112" y="-283" type="curve" smooth="yes"/>
      <point x="112" y="890" type="line" smooth="yes"/>
      <point x="112" y="899"/>
      <point x="105" y="906"/>
      <point x="96" y="906" type="curve" smooth="yes"/>
      <point x="87" y="906"/>
      <point x="80" y="899"/>
      <point x="80" y="890" type="curve" smooth="yes"/>
    </contour>
    <contour>
      <point x="855" y="890" type="line"/>
      <point x="855" y="899"/>
      <point x="848" y="906"/>
      <point x="839" y="906" type="curve" smooth="yes"/>
      <point x="830" y="906"/>
      <point x="823" y="899"/>
      <point x="823" y="890" type="curve" smooth="yes"/>
      <point x="823" y="371" type="line" smooth="yes"/>
      <point x="823" y="176"/>
      <point x="663" y="16"/>
      <point x="468" y="16" type="curve" smooth="yes"/>
      <point x="298" y="16"/>
      <point x="154" y="137"/>
      <point x="120" y="297" type="curve" smooth="yes"/>
      <point x="118" y="306"/>
      <point x="109" y="311"/>
      <point x="101" y="309" type="curve" smooth="yes"/>
      <point x="92" y="307"/>
      <point x="87" y="298"/>
      <point x="89" y="290" type="curve" smooth="yes"/>
      <point x="127" y="116"/>
      <point x="283" y="-16"/>
      <point x="468" y="-16" type="curve" smooth="yes"/>
      <point x="681" y="-16"/>
      <point x="855" y="158"/>
      <point x="855" y="371" type="curve" smooth="yes"/>
    </contour>
  </outline>
</glyph>
<glyph name="pi" format="1">
  <advance width="860.0"/>
  <unicode hex="03C0"/>
  <outline>
    <contour>
      <point x="764" y="885" type="line"/>
      <point x="773" y="885"/>
      <point x="780" y="892"/>
      <point x="780" y="901" type="curve" smooth="yes"/>
      <point x="780" y="910"/>
      <point x="773" y="917"/>
      <point x="764" y="917" type="curve" smooth="yes"/>
      <point x="96" y="917" type="line" smooth="yes"/>
      <point x="87" y="917"/>
      <point x="80" y="910"/>
      <point x="80" y="901" type="curve" smooth="yes"/>
      <point x="80" y="892"/>
      <point x="87" y="885"/>
      <point x="96" y="885" type="curve" smooth="yes"/>
    </contour>
    <contour>
      <point x="192" y="16" type="line"/>
      <point x="192" y="7"/>
      <point x="199" y="0"/>
      <point x="208" y="0" type="curve" smooth="yes"/>
      <point x="217" y="0"/>
      <point x="224" y="7"/>
      <point x="224" y="16" type="curve" smooth="yes"/>
      <point x="224" y="895" type="line" smooth="yes"/>
      <point x="224" y="904"/>
      <point x="217" y="911"/>
      <point x="208" y="911" type="curve" smooth="yes"/>
      <point x="199" y="911"/>
      <point x="192" y="904"/>
      <point x="192" y="895" type="curve" smooth="yes"/>
    </contour>
    <contour>
      <point x="509" y="895" type="line"/>
      <point x="509" y="904"/>
      <point x="502" y="911"/>
      <point x="493" y="911" type="curve" smooth="yes"/>
      <point x="484" y="911"/>
      <point x="477" y="904"/>
      <point x="477" y="895" type="curve" smooth="yes"/>
      <point x="477" y="271" type="line" smooth="yes"/>
      <point x="477" y="113"/>
      <point x="606" y="-16"/>
      <point x="764" y="-16" type="curve" smooth="yes"/>
      <point x="773" y="-16"/>
      <point x="780" y="-9"/>
      <point x="780" y="0" type="curve" smooth="yes"/>
      <point x="780" y="9"/>
      <point x="773" y="16"/>
      <point x="764" y="16" type="curve" smooth="yes"/>
      <point x="624" y="16"/>
      <point x="509" y="131"/>
      <point x="509" y="271" type="curve" smooth="yes"/>
    </contour>
  </outline>
</glyph>
<glyph name="guilsinglright" format="1">
  <advance width="284.0"/>
  <unicode hex="203A"/>
  <outline>
    <contour>
      <point x="87" y="586" type="line"/>
      <point x="81" y="592"/>
      <point x="71" y="592"/>
      <point x="65" y="586" type="curve" smooth="yes"/>
      <point x="59" y="580"/>
      <point x="59" y="570"/>
      <point x="65" y="564" type="curve" smooth="yes"/>
      <point x="199" y="432" type="line"/>
      <point x="199" y="454" type="line"/>
      <point x="65" y="322" type="line" smooth="yes"/>
      <point x="59" y="316"/>
      <point x="59" y="306"/>
      <point x="65" y="300" type="curve" smooth="yes"/>
      <point x="71" y="294"/>
      <point x="81" y="294"/>
      <point x="87" y="300" type="curve" smooth="yes"/>
      <point x="221" y="432" type="line" smooth="yes"/>
      <point x="228" y="438"/>
      <point x="228" y="448"/>
      <point x="221" y="454" type="curve" smooth="yes"/>
    </contour>
  </outline>
</glyph>
<glyph name="fraction" format="1">
  <advance width="1074.0"/>
  <unicode hex="2044"/>
  <outline>
    <contour>
      <point x="4" y="13" type="line"/>
      <point x="-2" y="7"/>
      <point x="-2" y="-3"/>
      <point x="5" y="-9" type="curve" smooth="yes"/>
      <point x="12" y="-14"/>
      <point x="22" y="-14"/>
      <point x="27" y="-7" type="curve" smooth="yes"/>
      <point x="1071" y="1191" type="line" smooth="yes"/>
      <point x="1076" y="1197"/>
      <point x="1076" y="1207"/>
      <point x="1069" y="1213" type="curve" smooth="yes"/>
      <point x="1063" y="1218"/>
      <point x="1053" y="1218"/>
      <point x="1047" y="1211" type="curve" smooth="yes"/>
    </contour>
  </outline>
</glyph>
<glyph name="product" format="1">
  <advance width="1161"/>
  <unicode hex="220F"/>
  <outline>
    <contour>
      <point x="1065" y="-16" type="curve" smooth="yes"/>
      <point x="1074" y="-16"/>
      <point x="1081" y="-9"/>
      <point x="1081" y="0" type="curve" smooth="yes"/>
      <point x="1081" y="9"/>
      <point x="1074" y="16"/>
      <point x="1065" y="16" type="curve" smooth="yes"/>
      <point x="1006" y="16"/>
      <point x="957" y="65"/>
      <point x="957" y="124" type="curve" smooth="yes"/>
      <point x="957" y="1178" type="line" smooth="yes"/>
      <point x="957" y="1187"/>
      <point x="950" y="1194"/>
      <point x="941" y="1194" type="curve" smooth="yes"/>
      <point x="932" y="1194"/>
      <point x="925" y="1187"/>
      <point x="925" y="1178" type="curve" smooth="yes"/>
      <point x="925" y="124" type="line" smooth="yes"/>
      <point x="925" y="47"/>
      <point x="988" y="-16"/>
    </contour>
    <contour>
      <point x="192" y="16" type="line"/>
      <point x="192" y="7"/>
      <point x="199" y="0"/>
      <point x="208" y="0" type="curve" smooth="yes"/>
      <point x="217" y="0"/>
      <point x="224" y="7"/>
      <point x="224" y="16" type="curve" smooth="yes"/>
      <point x="224" y="1178" type="line" smooth="yes"/>
      <point x="224" y="1187"/>
      <point x="217" y="1194"/>
      <point x="208" y="1194" type="curve" smooth="yes"/>
      <point x="199" y="1194"/>
      <point x="192" y="1187"/>
      <point x="192" y="1178" type="curve" smooth="yes"/>
    </contour>
    <contour>
      <point x="1065" y="1168" type="line"/>
      <point x="1074" y="1168"/>
      <point x="1081" y="1175"/>
      <point x="1081" y="1184" type="curve" smooth="yes"/>
      <point x="1081" y="1193"/>
      <point x="1074" y="1200"/>
      <point x="1065" y="1200" type="curve" smooth="yes"/>
      <point x="96" y="1200" type="line" smooth="yes"/>
      <point x="87" y="1200"/>
      <point x="80" y="1193"/>
      <point x="80" y="1184" type="curve" smooth="yes"/>
      <point x="80" y="1175"/>
      <point x="87" y="1168"/>
      <point x="96" y="1168" type="curve" smooth="yes"/>
    </contour>
  </outline>
</glyph>
<glyph name="approxequal" format="1">
  <advance width="840"/>
  <unicode hex="2248"/>
  <outline>
    <contour>
      <point x="668" y="531" type="curve" smooth="yes"/>
      <point x="674" y="537"/>
      <point x="674" y="547"/>
      <point x="668" y="553" type="curve" smooth="yes"/>
      <point x="662" y="559"/>
      <point x="652" y="559"/>
      <point x="646" y="553" type="curve" smooth="yes"/>
      <point x="587" y="496"/>
      <point x="490" y="495"/>
      <point x="431" y="553" type="curve" smooth="yes"/>
      <point x="359" y="625"/>
      <point x="243" y="625"/>
      <point x="171" y="553" type="curve" smooth="yes"/>
      <point x="165" y="547"/>
      <point x="165" y="537"/>
      <point x="171" y="531" type="curve" smooth="yes"/>
      <point x="177" y="525"/>
      <point x="187" y="525"/>
      <point x="193" y="531" type="curve" smooth="yes"/>
      <point x="253" y="589"/>
      <point x="349" y="589"/>
      <point x="409" y="531" type="curve" smooth="yes"/>
      <point x="480" y="460"/>
      <point x="597" y="460"/>
    </contour>
    <contour>
      <point x="668" y="291" type="curve" smooth="yes"/>
      <point x="674" y="297"/>
      <point x="674" y="307"/>
      <point x="668" y="313" type="curve" smooth="yes"/>
      <point x="662" y="319"/>
      <point x="652" y="319"/>
      <point x="646" y="313" type="curve" smooth="yes"/>
      <point x="587" y="256"/>
      <point x="490" y="255"/>
      <point x="431" y="313" type="curve" smooth="yes"/>
      <point x="359" y="385"/>
      <point x="243" y="385"/>
      <point x="171" y="313" type="curve" smooth="yes"/>
      <point x="165" y="307"/>
      <point x="165" y="297"/>
      <point x="171" y="291" type="curve" smooth="yes"/>
      <point x="177" y="285"/>
      <point x="187" y="285"/>
      <point x="193" y="291" type="curve" smooth="yes"/>
      <point x="253" y="349"/>
      <point x="349" y="349"/>
      <point x="409" y="291" type="curve" smooth="yes"/>
      <point x="480" y="220"/>
      <point x="597" y="220"/>
    </contour>
  </outline>
</glyph>
<glyph name="notequal" format="1">
  <advance width="840.0"/>
  <unicode hex="2260"/>
  <outline>
    <contour>
      <point x="472" y="632" type="line"/>
      <point x="473" y="641"/>
      <point x="467" y="649"/>
      <point x="459" y="651" type="curve" smooth="yes"/>
      <point x="450" y="652"/>
      <point x="442" y="646"/>
      <point x="440" y="638" type="curve"/>
      <point x="366" y="220" type="line" smooth="yes"/>
      <point x="365" y="211"/>
      <point x="371" y="203"/>
      <point x="379" y="201" type="curve" smooth="yes"/>
      <point x="388" y="200"/>
      <point x="397" y="206"/>
      <point x="398" y="214" type="curve"/>
    </contour>
    <component base="equal"/>
  </outline>
</glyph>
<glyph name="eight.sup" format="1">
  <advance width="523"/>
  <outline>
    <contour>
      <point x="223" y="907" type="curve" smooth="yes"/>
      <point x="231" y="908"/>
      <point x="238" y="916"/>
      <point x="237" y="925" type="curve" smooth="yes"/>
      <point x="236" y="933"/>
      <point x="228" y="940"/>
      <point x="220" y="939" type="curve" smooth="yes"/>
      <point x="141" y="931"/>
      <point x="80" y="864"/>
      <point x="80" y="783" type="curve" smooth="yes"/>
      <point x="80" y="735" type="line" smooth="yes"/>
      <point x="80" y="649"/>
      <point x="150" y="579"/>
      <point x="237" y="579" type="curve" smooth="yes"/>
      <point x="286" y="579" type="line" smooth="yes"/>
      <point x="373" y="579"/>
      <point x="443" y="649"/>
      <point x="443" y="735" type="curve" smooth="yes"/>
      <point x="443" y="783" type="line" smooth="yes"/>
      <point x="443" y="870"/>
      <point x="373" y="940"/>
      <point x="286" y="940" type="curve" smooth="yes"/>
      <point x="237" y="940" type="line" smooth="yes"/>
      <point x="172" y="940"/>
      <point x="119" y="994"/>
      <point x="119" y="1058" type="curve" smooth="yes"/>
      <point x="119" y="1076" type="line" smooth="yes"/>
      <point x="119" y="1141"/>
      <point x="172" y="1195"/>
      <point x="237" y="1195" type="curve" smooth="yes"/>
      <point x="286" y="1195" type="line" smooth="yes"/>
      <point x="351" y="1195"/>
      <point x="404" y="1141"/>
      <point x="404" y="1076" type="curve" smooth="yes"/>
      <point x="404" y="1058" type="line" smooth="yes"/>
      <point x="404" y="999"/>
      <point x="360" y="950"/>
      <point x="303" y="942" type="curve" smooth="yes"/>
      <point x="295" y="940"/>
      <point x="288" y="932"/>
      <point x="289" y="924" type="curve" smooth="yes"/>
      <point x="291" y="915"/>
      <point x="299" y="909"/>
      <point x="307" y="910" type="curve" smooth="yes"/>
      <point x="380" y="920"/>
      <point x="436" y="983"/>
      <point x="436" y="1058" type="curve" smooth="yes"/>
      <point x="436" y="1076" type="line" smooth="yes"/>
      <point x="436" y="1159"/>
      <point x="369" y="1227"/>
      <point x="286" y="1227" type="curve" smooth="yes"/>
      <point x="237" y="1227" type="line" smooth="yes"/>
      <point x="154" y="1227"/>
      <point x="87" y="1159"/>
      <point x="87" y="1076" type="curve" smooth="yes"/>
      <point x="87" y="1058" type="line" smooth="yes"/>
      <point x="87" y="976"/>
      <point x="154" y="908"/>
      <point x="237" y="908" type="curve" smooth="yes"/>
      <point x="286" y="908" type="line" smooth="yes"/>
      <point x="355" y="908"/>
      <point x="411" y="852"/>
      <point x="411" y="783" type="curve" smooth="yes"/>
      <point x="411" y="735" type="line" smooth="yes"/>
      <point x="411" y="667"/>
      <point x="355" y="611"/>
      <point x="286" y="611" type="curve" smooth="yes"/>
      <point x="237" y="611" type="line" smooth="yes"/>
      <point x="168" y="611"/>
      <point x="112" y="667"/>
      <point x="112" y="735" type="curve" smooth="yes"/>
      <point x="112" y="783" type="line" smooth="yes"/>
      <point x="112" y="848"/>
      <point x="161" y="901"/>
    </contour>
  </outline>
</glyph>
<glyph name="ezh" format="1">
  <advance width="618"/>
  <outline>
    <contour>
      <point x="107" y="949" type="line"/>
      <point x="98" y="949"/>
      <point x="91" y="942"/>
      <point x="91" y="933" type="curve" smooth="yes"/>
      <point x="91" y="924"/>
      <point x="98" y="917"/>
      <point x="107" y="917" type="curve" smooth="yes"/>
      <point x="531" y="917" type="line"/>
      <point x="518" y="942" type="line"/>
      <point x="306" y="638" type="line" smooth="yes"/>
      <point x="301" y="631"/>
      <point x="303" y="621"/>
      <point x="310" y="616" type="curve" smooth="yes"/>
      <point x="317" y="611"/>
      <point x="327" y="613"/>
      <point x="332" y="620" type="curve" smooth="yes"/>
      <point x="544" y="924" type="line" smooth="yes"/>
      <point x="554" y="938"/>
      <point x="548" y="949"/>
      <point x="531" y="949" type="curve" smooth="yes"/>
    </contour>
    <contour>
      <point x="319" y="645" type="curve" smooth="yes"/>
      <point x="310" y="645"/>
      <point x="303" y="638"/>
      <point x="303" y="629" type="curve" smooth="yes"/>
      <point x="303" y="620"/>
      <point x="310" y="613"/>
      <point x="319" y="613" type="curve" smooth="yes"/>
      <point x="480" y="613"/>
      <point x="612" y="481"/>
      <point x="612" y="320" type="curve" smooth="yes"/>
      <point x="612" y="115" type="line" smooth="yes"/>
      <point x="612" y="-46"/>
      <point x="480" y="-178"/>
      <point x="319" y="-178" type="curve" smooth="yes"/>
      <point x="317" y="-178" type="line" smooth="yes"/>
      <point x="214" y="-178"/>
      <point x="122" y="-124"/>
      <point x="70" y="-41" type="curve" smooth="yes"/>
      <point x="65" y="-34"/>
      <point x="55" y="-32"/>
      <point x="47" y="-36" type="curve" smooth="yes"/>
      <point x="40" y="-41"/>
      <point x="38" y="-51"/>
      <point x="42" y="-59" type="curve" smooth="yes"/>
      <point x="100" y="-150"/>
      <point x="202" y="-210"/>
      <point x="317" y="-210" type="curve" smooth="yes"/>
      <point x="319" y="-210" type="line" smooth="yes"/>
      <point x="498" y="-210"/>
      <point x="644" y="-64"/>
      <point x="644" y="115" type="curve" smooth="yes"/>
      <point x="644" y="320" type="line" smooth="yes"/>
      <point x="644" y="499"/>
      <point x="498" y="645"/>
    </contour>
  </outline>
</glyph>
<glyph name="five.sup" format="1">
  <advance width="520"/>
  <outline>
    <contour>
      <point x="112" y="759" type="curve" smooth="yes"/>
      <point x="112" y="768"/>
      <point x="105" y="775"/>
      <point x="96" y="775" type="curve" smooth="yes"/>
      <point x="87" y="775"/>
      <point x="80" y="768"/>
      <point x="80" y="759" type="curve" smooth="yes"/>
      <point x="80" y="660"/>
      <point x="161" y="579"/>
      <point x="260" y="579" type="curve" smooth="yes"/>
      <point x="359" y="579"/>
      <point x="439" y="660"/>
      <point x="439" y="759" type="curve" smooth="yes"/>
      <point x="439" y="816" type="line" smooth="yes"/>
      <point x="439" y="915"/>
      <point x="359" y="996"/>
      <point x="260" y="996" type="curve" smooth="yes"/>
      <point x="96" y="996" type="line"/>
      <point x="112" y="980" type="line"/>
      <point x="112" y="1195" type="line"/>
      <point x="96" y="1179" type="line"/>
      <point x="424" y="1179" type="line" smooth="yes"/>
      <point x="433" y="1179"/>
      <point x="440" y="1186"/>
      <point x="440" y="1195" type="curve" smooth="yes"/>
      <point x="440" y="1204"/>
      <point x="433" y="1211"/>
      <point x="424" y="1211" type="curve" smooth="yes"/>
      <point x="96" y="1211" type="line" smooth="yes"/>
      <point x="87" y="1211"/>
      <point x="80" y="1204"/>
      <point x="80" y="1195" type="curve" smooth="yes"/>
      <point x="80" y="980" type="line" smooth="yes"/>
      <point x="80" y="971"/>
      <point x="87" y="964"/>
      <point x="96" y="964" type="curve" smooth="yes"/>
      <point x="260" y="964" type="line" smooth="yes"/>
      <point x="341" y="964"/>
      <point x="407" y="897"/>
      <point x="407" y="816" type="curve" smooth="yes"/>
      <point x="407" y="759" type="line" smooth="yes"/>
      <point x="407" y="678"/>
      <point x="341" y="611"/>
      <point x="260" y="611" type="curve" smooth="yes"/>
      <point x="179" y="611"/>
      <point x="112" y="678"/>
    </contour>
  </outline>
</glyph>
<glyph name="four.oldstyle" format="1">
  <advance width="840.0"/>
  <outline>
    <contour>
      <point x="736" y="1" type="line"/>
      <point x="745" y="1"/>
      <point x="752" y="8"/>
      <point x="752" y="17" type="curve" smooth="yes"/>
      <point x="752" y="26"/>
      <point x="745" y="33"/>
      <point x="736" y="33" type="curve" smooth="yes"/>
      <point x="96" y="33" type="line"/>
      <point x="111" y="11" type="line"/>
      <point x="435" y="885" type="line"/>
      <point x="420" y="874" type="line"/>
      <point x="744" y="874" type="line"/>
      <point x="728" y="890" type="line"/>
      <point x="728" y="-251" type="line" smooth="yes"/>
      <point x="728" y="-260"/>
      <point x="735" y="-267"/>
      <point x="744" y="-267" type="curve" smooth="yes"/>
      <point x="753" y="-267"/>
      <point x="760" y="-260"/>
      <point x="760" y="-251" type="curve" smooth="yes"/>
      <point x="760" y="890" type="line" smooth="yes"/>
      <point x="760" y="899"/>
      <point x="753" y="906"/>
      <point x="744" y="906" type="curve" smooth="yes"/>
      <point x="420" y="906" type="line" smooth="yes"/>
      <point x="414" y="906"/>
      <point x="407" y="902"/>
      <point x="405" y="895" type="curve" smooth="yes"/>
      <point x="81" y="22" type="line" smooth="yes"/>
      <point x="77" y="10"/>
      <point x="84" y="1"/>
      <point x="96" y="1" type="curve" smooth="yes"/>
    </contour>
  </outline>
</glyph>
<glyph name="nine.sup" format="1">
  <advance width="523"/>
  <outline>
    <contour>
      <point x="112" y="755" type="curve" smooth="yes"/>
      <point x="112" y="764"/>
      <point x="105" y="771"/>
      <point x="96" y="771" type="curve" smooth="yes"/>
      <point x="87" y="771"/>
      <point x="80" y="764"/>
      <point x="80" y="755" type="curve" smooth="yes"/>
      <point x="80" y="655"/>
      <point x="162" y="573"/>
      <point x="261" y="573" type="curve" smooth="yes"/>
      <point x="361" y="573"/>
      <point x="443" y="655"/>
      <point x="443" y="755" type="curve" smooth="yes"/>
      <point x="443" y="1041" type="line" smooth="yes"/>
      <point x="443" y="1141"/>
      <point x="361" y="1221"/>
      <point x="261" y="1221" type="curve" smooth="yes"/>
      <point x="162" y="1221"/>
      <point x="80" y="1141"/>
      <point x="80" y="1041" type="curve" smooth="yes"/>
      <point x="80" y="953" type="line" smooth="yes"/>
      <point x="80" y="853"/>
      <point x="162" y="771"/>
      <point x="261" y="771" type="curve" smooth="yes"/>
      <point x="356" y="771"/>
      <point x="434" y="844"/>
      <point x="442" y="937" type="curve" smooth="yes"/>
      <point x="443" y="946"/>
      <point x="436" y="954"/>
      <point x="427" y="955" type="curve" smooth="yes"/>
      <point x="418" y="955"/>
      <point x="411" y="948"/>
      <point x="410" y="940" type="curve" smooth="yes"/>
      <point x="403" y="864"/>
      <point x="339" y="803"/>
      <point x="261" y="803" type="curve" smooth="yes"/>
      <point x="180" y="803"/>
      <point x="112" y="871"/>
      <point x="112" y="953" type="curve" smooth="yes"/>
      <point x="112" y="1041" type="line" smooth="yes"/>
      <point x="112" y="1123"/>
      <point x="180" y="1189"/>
      <point x="261" y="1189" type="curve" smooth="yes"/>
      <point x="343" y="1189"/>
      <point x="411" y="1123"/>
      <point x="411" y="1041" type="curve" smooth="yes"/>
      <point x="411" y="755" type="line" smooth="yes"/>
      <point x="411" y="673"/>
      <point x="343" y="605"/>
      <point x="261" y="605" type="curve" smooth="yes"/>
      <point x="180" y="605"/>
      <point x="112" y="673"/>
    </contour>
  </outline>
</glyph>
<glyph name="one.sup" format="1">
  <advance width="523.0"/>
  <outline>
    <contour>
      <point x="246" y="612" type="line"/>
      <point x="246" y="603"/>
      <point x="253" y="596"/>
      <point x="262" y="596" type="curve" smooth="yes"/>
      <point x="271" y="596"/>
      <point x="278" y="603"/>
      <point x="278" y="612" type="curve" smooth="yes"/>
      <point x="278" y="1202" type="line" smooth="yes"/>
      <point x="278" y="1223"/>
      <point x="266" y="1228"/>
      <point x="251" y="1213" type="curve" smooth="yes"/>
      <point x="85" y="1047" type="line" smooth="yes"/>
      <point x="79" y="1041"/>
      <point x="79" y="1031"/>
      <point x="85" y="1025" type="curve" smooth="yes"/>
      <point x="91" y="1019"/>
      <point x="101" y="1019"/>
      <point x="107" y="1025" type="curve" smooth="yes"/>
      <point x="273" y="1191" type="line"/>
      <point x="246" y="1202" type="line"/>
    </contour>
    <contour>
      <point x="427" y="593" type="line"/>
      <point x="436" y="593"/>
      <point x="443" y="600"/>
      <point x="443" y="609" type="curve" smooth="yes"/>
      <point x="443" y="618"/>
      <point x="436" y="625"/>
      <point x="427" y="625" type="curve" smooth="yes"/>
      <point x="96" y="625" type="line" smooth="yes"/>
      <point x="87" y="625"/>
      <point x="80" y="618"/>
      <point x="80" y="609" type="curve" smooth="yes"/>
      <point x="80" y="600"/>
      <point x="87" y="593"/>
      <point x="96" y="593" type="curve" smooth="yes"/>
    </contour>
  </outline>
</glyph>
<glyph name="two.oldstyle" format="1">
  <advance width="840.0"/>
  <outline>
    <contour>
      <point x="685" y="0" type="line"/>
      <point x="694" y="0"/>
      <point x="701" y="7"/>
      <point x="701" y="16" type="curve" smooth="yes"/>
      <point x="701" y="25"/>
      <point x="694" y="32"/>
      <point x="685" y="32" type="curve" smooth="yes"/>
      <point x="147" y="32" type="line"/>
      <point x="163" y="16" type="line"/>
      <point x="163" y="59" type="line" smooth="yes"/>
      <point x="163" y="199"/>
      <point x="277" y="312"/>
      <point x="415" y="312" type="curve" smooth="yes"/>
      <point x="572" y="312"/>
      <point x="701" y="440"/>
      <point x="701" y="597" type="curve" smooth="yes"/>
      <point x="701" y="637" type="line" smooth="yes"/>
      <point x="701" y="794"/>
      <point x="572" y="922"/>
      <point x="415" y="922" type="curve" smooth="yes"/>
      <point x="259" y="922"/>
      <point x="131" y="794"/>
      <point x="131" y="637" type="curve" smooth="yes"/>
      <point x="131" y="628"/>
      <point x="138" y="621"/>
      <point x="147" y="621" type="curve" smooth="yes"/>
      <point x="156" y="621"/>
      <point x="163" y="628"/>
      <point x="163" y="637" type="curve" smooth="yes"/>
      <point x="163" y="776"/>
      <point x="277" y="890"/>
      <point x="415" y="890" type="curve" smooth="yes"/>
      <point x="554" y="890"/>
      <point x="669" y="776"/>
      <point x="669" y="637" type="curve" smooth="yes"/>
      <point x="669" y="597" type="line" smooth="yes"/>
      <point x="669" y="458"/>
      <point x="554" y="344"/>
      <point x="415" y="344" type="curve" smooth="yes"/>
      <point x="259" y="344"/>
      <point x="131" y="217"/>
      <point x="131" y="59" type="curve" smooth="yes"/>
      <point x="131" y="16" type="line" smooth="yes"/>
      <point x="131" y="7"/>
      <point x="138" y="0"/>
      <point x="147" y="0" type="curve" smooth="yes"/>
    </contour>
  </outline>
</glyph>
<glyph name="two.sup" format="1">
  <advance width="519"/>
  <outline>
    <contour>
      <point x="423" y="600" type="line"/>
      <point x="432" y="600"/>
      <point x="439" y="607"/>
      <point x="439" y="616" type="curve" smooth="yes"/>
      <point x="439" y="625"/>
      <point x="432" y="632"/>
      <point x="423" y="632" type="curve" smooth="yes"/>
      <point x="96" y="632" type="line"/>
      <point x="112" y="616" type="line"/>
      <point x="112" y="668" type="line" smooth="yes"/>
      <point x="112" y="748"/>
      <point x="179" y="815"/>
      <point x="260" y="815" type="curve" smooth="yes"/>
      <point x="359" y="815"/>
      <point x="439" y="896"/>
      <point x="439" y="995" type="curve" smooth="yes"/>
      <point x="439" y="1052" type="line" smooth="yes"/>
      <point x="439" y="1151"/>
      <point x="359" y="1232"/>
      <point x="260" y="1232" type="curve" smooth="yes"/>
      <point x="161" y="1232"/>
      <point x="80" y="1151"/>
      <point x="80" y="1052" type="curve" smooth="yes"/>
      <point x="80" y="1043"/>
      <point x="87" y="1036"/>
      <point x="96" y="1036" type="curve" smooth="yes"/>
      <point x="105" y="1036"/>
      <point x="112" y="1043"/>
      <point x="112" y="1052" type="curve" smooth="yes"/>
      <point x="112" y="1133"/>
      <point x="179" y="1200"/>
      <point x="260" y="1200" type="curve" smooth="yes"/>
      <point x="341" y="1200"/>
      <point x="407" y="1133"/>
      <point x="407" y="1052" type="curve" smooth="yes"/>
      <point x="407" y="995" type="line" smooth="yes"/>
      <point x="407" y="914"/>
      <point x="341" y="847"/>
      <point x="260" y="847" type="curve" smooth="yes"/>
      <point x="161" y="847"/>
      <point x="80" y="766"/>
      <point x="80" y="668" type="curve" smooth="yes"/>
      <point x="80" y="616" type="line" smooth="yes"/>
      <point x="80" y="607"/>
      <point x="87" y="600"/>
      <point x="96" y="600" type="curve" smooth="yes"/>
    </contour>
  </outline>
</glyph>
<glyph name="zero.oldstyle" format="1">
  <advance width="840.0"/>
  <outline>
    <contour>
      <point x="760" y="585" type="line"/>
      <point x="760" y="772"/>
      <point x="607" y="922"/>
      <point x="420" y="922" type="curve" smooth="yes"/>
      <point x="233" y="922"/>
      <point x="80" y="769"/>
      <point x="80" y="582" type="curve" smooth="yes"/>
      <point x="80" y="317" type="line" smooth="yes"/>
      <point x="80" y="130"/>
      <point x="233" y="-21"/>
      <point x="420" y="-21" type="curve" smooth="yes"/>
      <point x="607" y="-21"/>
      <point x="760" y="130"/>
      <point x="760" y="317" type="curve" smooth="yes"/>
    </contour>
    <contour>
      <point x="728" y="585" type="curve" smooth="yes"/>
      <point x="728" y="317" type="line" smooth="yes"/>
      <point x="728" y="148"/>
      <point x="589" y="11"/>
      <point x="420" y="11" type="curve" smooth="yes"/>
      <point x="251" y="11"/>
      <point x="112" y="148"/>
      <point x="112" y="317" type="curve" smooth="yes"/>
      <point x="112" y="582" type="line" smooth="yes"/>
      <point x="112" y="751"/>
      <point x="251" y="890"/>
      <point x="420" y="890" type="curve" smooth="yes"/>
      <point x="589" y="890"/>
      <point x="728" y="754"/>
    </contour>
    <contour>
      <point x="101" y="266" type="line"/>
      <point x="94" y="261"/>
      <point x="92" y="251"/>
      <point x="97" y="244" type="curve" smooth="yes"/>
      <point x="102" y="237"/>
      <point x="112" y="235"/>
      <point x="119" y="240" type="curve" smooth="yes"/>
      <point x="739" y="636" type="line" smooth="yes"/>
      <point x="747" y="641"/>
      <point x="748" y="651"/>
      <point x="744" y="658" type="curve" smooth="yes"/>
      <point x="739" y="665"/>
      <point x="729" y="667"/>
      <point x="722" y="662" type="curve" smooth="yes"/>
    </contour>
  </outline>
</glyph>
